<svg version="1" xmlns="http://www.w3.org/2000/svg" width="800" height="800" viewBox="0 0 600 600"><path d="M27 9.9C20.1 12 14.9 16.4 11.4 23c-1.8 3.4-1.9 12.1-1.9 277v273.5l2.2 4c2.5 4.7 6.4 8.5 11.3 11.1 3.4 1.8 12.1 1.9 277 1.9h273.5l4-2.2c4.7-2.5 8.5-6.4 11.1-11.3 1.8-3.4 1.9-12.1 1.9-277V26.5l-2.2-4c-2.5-4.7-6.4-8.5-11.3-11.1-3.4-1.8-12.2-1.9-275.5-2.1-149.6-.1-273.1.2-274.5.6zm325.2 73.6c23.6 2.7 43.6 8.4 63.3 17.9 30.6 14.7 60.6 42.4 80 73.7 3 4.9 5.5 9 5.5 9.2 0 .2-17.4 8.8-38.6 19.3-35.6 17.4-38.8 18.7-39.8 17-10-16.7-22.2-30.1-35.8-39.4-10.7-7.3-24.6-13.7-36.3-16.9-8.9-2.3-11.8-2.6-27-2.6-19 0-30.9 1.9-45.6 7.3-36 13.1-65.4 43.7-77.9 81-11.9 35.3-9.8 80.8 5.1 113.8 11.7 26 34.2 49.7 59.2 62.3 18.6 9.4 36.3 13.3 60.2 13.2 14 0 17.2-.3 26-2.7 26.2-6.9 51.6-25.2 66.6-47.9 3.2-4.9 5.9-9.3 6.1-9.8.2-.7 75.2 34.7 77.6 36.7.2.1-2 3.9-4.8 8.5-20.1 32.3-48.9 59.4-79.7 74.8-29.1 14.5-61.7 21-99.7 19.8-27.3-.9-46.2-4.1-69.9-12-57.8-19.4-99.6-55-124.8-106.3-15-30.8-22-62.6-22-100.4 0-37.6 7.1-69.9 21.6-99 11.6-23.3 21.8-37.4 40.4-56 24.2-24 50.4-39.9 84.5-51.1 13.6-4.5 36.8-9.4 50.6-10.7 15.3-1.5 41.5-1.3 55.2.3z"/></svg>