<?xml version="1.0" encoding="utf-8"?><svg xmlns="http://www.w3.org/2000/svg" xmlns:xlink="http://www.w3.org/1999/xlink"><symbol viewBox="0 0 85 115" id="icon-1" xmlns="http://www.w3.org/2000/svg"><path fill="var(--color-1)" d="M58.386 16.85l2.592-2.59a1.83 1.83 0 0 1 0-2.589l7.841-7.836a18.61 18.61 0 0 0-2.522-.173 18.403 18.403 0 0 0-13.094 5.419 18.437 18.437 0 0 0-5.253 15.607l7.844-7.838a1.834 1.834 0 0 1 2.592 0z"/><path fill="var(--color-2)" d="M58.386 16.85a1.83 1.83 0 0 1 0 2.59l-7.842 7.836c.834.113 1.676.172 2.523.172a18.4 18.4 0 0 0 13.094-5.419 18.438 18.438 0 0 0 5.253-15.607l-7.845 7.839a1.828 1.828 0 0 1-1.296.536c-.468 0-.938-.179-1.295-.536l-2.592 2.59z"/><path fill="var(--color-3)" d="M66.532 41.298a22.731 22.731 0 0 0-8.733-1.744 22.98 22.98 0 0 0-14.478 5.16 1.954 1.954 0 0 1-.253.172l-.02.011a1.815 1.815 0 0 1-.256.116l-.042.016a1.794 1.794 0 0 1-.262.067l-.049.008c-.09.013-.18.022-.274.023-.1 0-.191-.01-.28-.024l-.049-.007a1.796 1.796 0 0 1-.561-.199l-.02-.011a1.82 1.82 0 0 1-.245-.167 22.993 22.993 0 0 0-14.485-5.165c-3 0-5.938.587-8.734 1.744C6.483 45.98.881 58.648 5.036 70.138c1.203 3.327 11.786 24.045 17.214 34.535a11.872 11.872 0 0 0 10.583 6.42c1.563 0 3.096-.306 4.556-.91 1.31-.542 2.497-1.3 3.529-2.253a1.83 1.83 0 0 1 1.244-.486c.446 0 .892.162 1.244.486a11.884 11.884 0 0 0 3.529 2.253c1.46.604 2.992.91 4.556.91 4.475 0 8.53-2.461 10.584-6.423 5.427-10.488 16.01-31.205 17.212-34.53 4.156-11.493-1.446-24.161-12.755-28.842zM13.849 58.963l-.03.002a1.832 1.832 0 0 1-1.833-1.831l.001-.031a1.83 1.83 0 0 1 1.83-1.8c.047 0 .092.003.137.006a1.83 1.83 0 0 1 1.69 1.688c.003.046.006.09.006.137a1.83 1.83 0 0 1-1.801 1.83zm9.132-9.154v.015a1.831 1.831 0 0 1-1.832 1.816 1.831 1.831 0 0 1-.015-3.662h.015c1.012 0 1.832.82 1.832 1.831zM58.29 93.88a1.833 1.833 0 0 1-1.833-1.831 1.832 1.832 0 0 1 1.833-1.831c.026 0 .051.003.078.004a1.83 1.83 0 0 1-.079 3.658z"/><path fill="currentColor" d="M67.935 37.915A26.378 26.378 0 0 0 57.8 35.892c-4.939 0-9.79 1.396-13.971 3.977-.777-7.957-4.254-15.337-9.986-21.064a1.833 1.833 0 0 0-2.592 0 1.83 1.83 0 0 0 0 2.59c4.984 4.98 8.06 11.357 8.866 18.246a26.652 26.652 0 0 0-13.591-3.75c-3.483 0-6.893.681-10.136 2.024-13.122 5.43-19.623 20.132-14.8 33.468 1.584 4.38 16.76 33.725 17.406 34.973a15.527 15.527 0 0 0 13.838 8.4c2.047 0 4.052-.4 5.958-1.189a15.618 15.618 0 0 0 3.37-1.913 15.622 15.622 0 0 0 3.37 1.913 15.506 15.506 0 0 0 5.96 1.189c5.85 0 11.153-3.22 13.839-8.403.645-1.247 15.82-30.59 17.404-34.969 4.824-13.337-1.677-28.038-14.799-33.47zM79.287 70.14c-1.203 3.325-11.785 24.042-17.212 34.53a11.874 11.874 0 0 1-10.584 6.424c-1.564 0-3.097-.307-4.556-.911a11.885 11.885 0 0 1-3.53-2.253 1.83 1.83 0 0 0-1.244-.486 1.83 1.83 0 0 0-1.243.486 11.87 11.87 0 0 1-3.53 2.253c-1.459.604-2.992.91-4.555.91-4.475 0-8.53-2.46-10.583-6.42-5.428-10.49-16.01-31.208-17.214-34.534-4.156-11.492 1.447-24.16 12.755-28.84a22.73 22.73 0 0 1 8.733-1.745 22.981 22.981 0 0 1 14.48 5.16c.083.067.165.123.252.172l.019.011c.082.046.168.084.257.116l.041.016c.085.028.173.051.263.067l.048.007a1.767 1.767 0 0 0 .555 0l.048-.007a1.813 1.813 0 0 0 .561-.199l.02-.011c.086-.05.168-.105.245-.167A22.993 22.993 0 0 1 57.8 39.554c2.999 0 5.937.587 8.733 1.744 11.309 4.68 16.911 17.35 12.755 28.842z"/><path fill="currentColor" d="M15.643 56.997a1.83 1.83 0 0 0-1.977-1.687 1.83 1.83 0 0 0-1.68 1.792l-.001.032c0 1.011.82 1.83 1.833 1.83h.03a1.83 1.83 0 0 0 1.802-1.83c0-.046-.004-.092-.007-.137zm5.505-9.019h-.015a1.832 1.832 0 0 0-1.807 2.029 1.83 1.83 0 0 0 2.018 1.622 1.831 1.831 0 0 0 1.635-1.805l.001-.015a1.83 1.83 0 0 0-1.832-1.831zm37.219 42.244c-.026-.001-.051-.004-.078-.004a1.83 1.83 0 1 0 1.833 1.831 1.83 1.83 0 0 0-1.755-1.827zm-13.221-61.36l.005.02.011.028a1.857 1.857 0 0 0 .155.34l.03.05c.027.044.056.086.088.127a1.778 1.778 0 0 0 .321.333l.044.032c.04.03.082.06.125.087l.053.03a1.818 1.818 0 0 0 .338.154l.03.012.019.005.025.008a22.265 22.265 0 0 0 6.677 1.023 22.046 22.046 0 0 0 15.686-6.492c5.87-5.865 7.964-14.425 5.472-22.347l-.007-.024-.006-.019c-.003-.01-.008-.019-.01-.028a1.807 1.807 0 0 0-.156-.34l-.03-.051a1.849 1.849 0 0 0-.088-.127l-.03-.042a1.8 1.8 0 0 0-.291-.29c-.014-.012-.028-.021-.042-.032a1.702 1.702 0 0 0-.127-.088l-.052-.03a1.809 1.809 0 0 0-.338-.154l-.03-.011-.02-.006-.024-.007A22.262 22.262 0 0 0 66.297 0 22.045 22.045 0 0 0 50.61 6.491c-5.87 5.866-7.965 14.425-5.472 22.347l.007.024zM53.203 9.08a18.403 18.403 0 0 1 13.094-5.419c.847 0 1.689.06 2.522.173l-7.841 7.836a1.83 1.83 0 0 0 1.295 3.126c.47 0 .938-.18 1.296-.537l7.845-7.838a18.438 18.438 0 0 1-5.253 15.607 18.403 18.403 0 0 1-13.094 5.419c-.847 0-1.689-.06-2.523-.173l7.842-7.835a1.83 1.83 0 0 0 0-2.59 1.834 1.834 0 0 0-2.592 0l-7.844 7.838A18.438 18.438 0 0 1 53.203 9.08z"/></symbol><symbol viewBox="0 0 115 83" id="icon-2" xmlns="http://www.w3.org/2000/svg"><path d="M98.929 69.098h-83.08v9.766h83.08v-9.766z" fill="var(--color-1)"/><path d="M15.85 31.985v16.97c0 1.009.822 1.83 1.832 1.83h79.414c1.01 0 1.833-.821 1.833-1.83v-16.97h-83.08zm67.393 13.673a1.832 1.832 0 1 1-.002-3.664 1.832 1.832 0 0 1 .002 3.664zm7.33-4.883a1.832 1.832 0 1 1-.001-3.664 1.832 1.832 0 0 1 .001 3.664z" fill="var(--color-2)"/><path d="M105.648 3.662H9.13c-3.013 0-5.465 2.472-5.465 5.51 0 3.02 2.452 5.478 5.465 5.478 1.012 0 1.833.82 1.833 1.83v11.843h92.853v-10.01H38.452a1.832 1.832 0 1 1 0-3.663h67.196c3.014 0 5.465-2.457 5.465-5.478 0-3.038-2.451-5.51-5.465-5.51zm-74.526 14.65H16.46a1.832 1.832 0 1 1 0-3.662h14.66a1.832 1.832 0 1 1 0 3.662z" fill="var(--color-3)"/><path d="M105.648 0H9.13C4.096 0 0 4.115 0 9.172c0 4.412 3.138 8.103 7.298 8.955v12.027c0 1.011.82 1.831 1.832 1.831h3.054v16.97a5.502 5.502 0 0 0 5.498 5.493h79.414a5.502 5.502 0 0 0 5.498-5.494V31.985h3.054c1.012 0 1.833-.82 1.833-1.831V18.127c4.159-.852 7.297-4.543 7.297-8.955 0-5.057-4.095-9.172-9.13-9.172zm0 14.65H38.452a1.832 1.832 0 1 0 0 3.662h65.364v10.01H10.963v-11.84c0-1.011-.82-1.831-1.833-1.831-3.013 0-5.465-2.457-5.465-5.478 0-3.038 2.452-5.51 5.465-5.51h96.518c3.014 0 5.465 2.472 5.465 5.51 0 3.02-2.451 5.478-5.465 5.478zm-8.552 36.136H17.682a1.834 1.834 0 0 1-1.832-1.832V31.985h83.079v16.97c0 1.009-.823 1.83-1.833 1.83z" fill="currentColor"/><path d="M31.122 14.65H16.46a1.832 1.832 0 1 0 0 3.662h14.66a1.832 1.832 0 1 0 0-3.662zm69.639 50.785H14.017c-1.012 0-1.832.82-1.832 1.831v13.43c0 1.01.82 1.83 1.832 1.83h86.744c1.012 0 1.833-.82 1.833-1.83v-13.43a1.832 1.832 0 0 0-1.833-1.83zm-1.832 13.43h-83.08v-9.767h83.08v9.766zM83.243 45.658a1.832 1.832 0 1 0 .001-3.664 1.832 1.832 0 0 0-.001 3.664zm7.33-4.883a1.832 1.832 0 1 0 .002-3.664 1.832 1.832 0 0 0-.002 3.664z" fill="currentColor"/></symbol><symbol viewBox="0 0 115 115" id="icon-3" xmlns="http://www.w3.org/2000/svg"><path d="M31.232 75.35a58.144 58.144 0 0 0 2.804-16.14H3.726c.444 13.138 5.67 26.143 15.684 36.15.122.122.246.24.368.36a60.224 60.224 0 0 0 8.856-13.758 1.832 1.832 0 0 1 2.41-.9 60.35 60.35 0 0 0 1.339-3.415 1.83 1.83 0 0 1-1.15-2.296zm2.803-19.804c-.421-13.344-5.434-26.179-14.258-36.509-.122.12-.246.238-.368.359C9.395 29.403 4.17 42.408 3.725 55.546h30.31zm-14.61-22.773c.65 0 1.22.338 1.544.847.183.285.29.622.29.985a1.832 1.832 0 0 1-2.858 1.518 1.833 1.833 0 0 1 1.024-3.35zm64.351.91a1.83 1.83 0 0 1-.89-2.431 63.892 63.892 0 0 1 9.48-14.696C83.094 8.607 71.53 4.104 59.252 3.696v51.85H77.14a61.802 61.802 0 0 1 2.983-17.27 1.832 1.832 0 0 1 2.308-1.178l.028.01a60.277 60.277 0 0 1 1.34-3.415l-.024-.01zm-6.634 25.526h-17.89v51.849c12.279-.406 23.842-4.91 33.113-12.86-9.445-11.01-14.8-24.726-15.223-38.99zM70.34 90.642a1.813 1.813 0 0 1-.733-.073 1.837 1.837 0 0 1-1.205-2.294 1.833 1.833 0 0 1 3.583.545c0 .948-.721 1.728-1.645 1.822zm7.143 7.334a1.834 1.834 0 0 1-1.735-2.418 1.832 1.832 0 1 1 1.735 2.418z" fill="var(--color-1)"/><path d="M22.478 98.198c9.269 7.947 20.832 12.45 33.11 12.86v-51.85H37.702A61.807 61.807 0 0 1 34.72 76.48a1.833 1.833 0 0 1-2.308 1.178l-.028-.011a60.383 60.383 0 0 1-1.34 3.416l.025.01a1.83 1.83 0 0 1 .89 2.431 63.875 63.875 0 0 1-9.48 14.695zm15.224-42.652h17.886V3.696c-12.277.41-23.84 4.913-33.11 12.861 9.446 11.01 14.801 24.726 15.224 38.99zm43.107 3.663c.421 13.344 5.433 26.179 14.257 36.508.121-.12.245-.236.366-.357 10.015-10.007 15.241-23.013 15.686-36.151H80.809zm14.257-40.173a60.22 60.22 0 0 0-8.856 13.757 1.834 1.834 0 0 1-2.41.9 60.369 60.369 0 0 0-1.34 3.416 1.83 1.83 0 0 1 1.151 2.295 58.146 58.146 0 0 0-2.803 16.143h30.31c-.444-13.14-5.669-26.145-15.684-36.152-.121-.121-.246-.239-.368-.36z" fill="var(--color-2)"/><path d="M114.843 57.4l.001-.022-.001-.022c-.005-15.318-5.977-29.719-16.817-40.55C87.181 5.968 72.763 0 57.426 0 42.939.003 29.286 5.322 18.68 15.03l-.015.011-.021.021a58.39 58.39 0 0 0-1.826 1.744C5.975 27.641.002 42.046 0 57.368.002 72.71 5.975 87.115 16.819 97.95c10.843 10.835 25.263 16.803 40.602 16.805 14.477 0 28.13-5.318 38.737-15.024l.02-.017.029-.029a58.717 58.717 0 0 0 1.817-1.735c10.84-10.832 16.813-25.232 16.819-40.55zM95.066 95.717C86.242 85.387 81.23 72.553 80.809 59.21h30.309c-.445 13.139-5.671 26.144-15.686 36.151-.12.121-.245.238-.366.357zM31.068 81.072l-.024-.01a1.832 1.832 0 0 0-2.41.9 60.23 60.23 0 0 1-8.856 13.757c-.122-.12-.246-.237-.368-.359C9.396 85.353 4.17 72.347 3.725 59.21h30.311a58.145 58.145 0 0 1-2.803 16.141 1.83 1.83 0 0 0 1.15 2.296c.01.003.018.008.028.01a1.832 1.832 0 0 0 2.308-1.177 61.797 61.797 0 0 0 2.983-17.27h17.886v51.849c-12.278-.41-23.841-4.913-33.11-12.86a63.889 63.889 0 0 0 9.48-14.695 1.83 1.83 0 0 0-.89-2.431zm-11.29-62.035c8.823 10.33 13.836 23.165 14.257 36.51H3.725c.444-13.139 5.67-26.144 15.684-36.15.122-.122.246-.24.368-.36zm35.81 36.51H37.702c-.423-14.264-5.778-27.98-15.224-38.99 9.27-7.948 20.833-12.452 33.11-12.86v51.85zm3.665 3.662h17.889c.423 14.263 5.778 27.978 15.224 38.989-9.272 7.95-20.835 12.454-33.113 12.861v-51.85zm21.555-3.663a58.143 58.143 0 0 1 2.803-16.142 1.83 1.83 0 0 0-1.15-2.296l-.029-.01a1.832 1.832 0 0 0-2.308 1.178 61.794 61.794 0 0 0-2.983 17.27H59.253V3.697c12.278.408 23.842 4.911 33.112 12.86a63.884 63.884 0 0 0-9.48 14.695 1.83 1.83 0 0 0 .89 2.432l.025.01a1.827 1.827 0 0 0 2.41-.9 60.224 60.224 0 0 1 8.856-13.757c.122.12.247.238.368.36 10.015 10.006 15.24 23.012 15.684 36.15h-30.31z" fill="currentColor"/><path d="M19.426 32.774a1.832 1.832 0 1 0-.001 3.664 1.832 1.832 0 0 0 .001-3.664zm50.727 54.215a1.833 1.833 0 0 0-1.684 2.555 1.838 1.838 0 0 0 1.871 1.097 1.832 1.832 0 0 0-.187-3.652zm9.163 9.156a1.832 1.832 0 1 0-3.664.001 1.832 1.832 0 0 0 3.664-.001z" fill="currentColor"/></symbol><symbol viewBox="0 0 115 115" id="icon-4" xmlns="http://www.w3.org/2000/svg"><path d="M67.819 33.856a11.57 11.57 0 0 1-2.919.373c-2.032 0-3.971-.524-5.633-1.473v65.52a1.832 1.832 0 0 1-3.666 0v-65.52a11.356 11.356 0 0 1-5.633 1.473c-.994 0-1.975-.127-2.919-.373v79.07h8.553v-7.325a1.832 1.832 0 0 1 3.665 0v7.325h8.552v-79.07z" fill="var(--color-1)"/><path d="M55.092 12.21h4.684l-2.342-5.617-2.342 5.616z" fill="var(--color-2)"/><path d="M64.9 30.567a7.85 7.85 0 0 0 2.378-.368l-5.975-14.328h-7.738L47.591 30.2a7.86 7.86 0 0 0 2.377.368c2.449 0 4.68-1.095 5.966-2.929a1.834 1.834 0 0 1 3 0c1.287 1.834 3.517 2.929 5.966 2.929z" fill="var(--color-3)"/><path d="M57.434 103.77a1.831 1.831 0 0 0-1.832 1.831v7.325a1.832 1.832 0 0 0 3.665 0v-7.325c0-1.012-.82-1.831-1.833-1.831z" fill="currentColor"/><path d="M96.299 42.835l11.889-11.88a25.052 25.052 0 0 0-4.506-.411c-6.644 0-12.889 2.584-17.585 7.277a24.763 24.763 0 0 0-6.873 22.076l11.891-11.883a1.833 1.833 0 0 1 2.592 0l2.592-2.59a1.83 1.83 0 0 1 0-2.59z" fill="var(--color-5)"/><path d="M97.595 45.96c-.47 0-.938-.178-1.296-.535l-2.592 2.589a1.83 1.83 0 0 1 0 2.59l-11.889 11.88a25.05 25.05 0 0 0 4.506.41c6.643 0 12.889-2.583 17.585-7.276a24.765 24.765 0 0 0 6.873-22.076L98.891 45.425a1.827 1.827 0 0 1-1.296.536z" fill="var(--color-6)"/><path d="M113.536 29.45l-.008-.025-.006-.019-.01-.027a1.812 1.812 0 0 0-.274-.52c-.01-.014-.019-.028-.03-.04a1.767 1.767 0 0 0-.291-.292l-.039-.029a1.879 1.879 0 0 0-.131-.09l-.048-.029a1.898 1.898 0 0 0-.136-.072l-.05-.023a1.87 1.87 0 0 0-.158-.06l-.027-.011-.016-.005-.03-.01a28.635 28.635 0 0 0-8.6-1.318c-7.622 0-14.788 2.965-20.177 8.35a28.423 28.423 0 0 0-7.339 27.72l-4.682 4.678V31.117c0-.023-.003-.046-.004-.068a1.832 1.832 0 0 0-.137-.622l-7.126-17.088-.008-.02-5.083-12.191a1.832 1.832 0 0 0-3.384 0l-5.083 12.19-.008.02-7.126 17.09a1.824 1.824 0 0 0-.137.62c-.001.023-.003.046-.003.07l-.001.014v58.473l-4.682-4.679a28.423 28.423 0 0 0-7.34-27.72c-5.388-5.385-12.553-8.35-20.176-8.35-2.925 0-5.818.444-8.6 1.32l-.03.008-.016.005-.027.01a1.79 1.79 0 0 0-.158.061l-.05.023a1.748 1.748 0 0 0-.136.073c-.016.01-.033.018-.048.028a1.823 1.823 0 0 0-.131.09l-.04.03a1.85 1.85 0 0 0-.29.29l-.03.04a1.836 1.836 0 0 0-.09.13l-.029.049a1.883 1.883 0 0 0-.155.342c-.003.01-.008.018-.01.028l-.006.018-.008.025C-1.88 61.62.813 72.635 8.367 80.182c5.389 5.385 12.554 8.35 20.177 8.35a28.64 28.64 0 0 0 7.567-1.015l7.272 7.267v18.141a1.832 1.832 0 0 0 3.665 0v-79.07a11.57 11.57 0 0 0 2.919.373 11.35 11.35 0 0 0 5.634-1.474v65.52a1.832 1.832 0 0 0 3.665 0v-65.52a11.356 11.356 0 0 0 5.634 1.474c.993 0 1.974-.127 2.918-.373v79.069a1.832 1.832 0 0 0 3.665 0V72.809l7.273-7.267a28.646 28.646 0 0 0 7.567 1.015c7.622 0 14.788-2.966 20.176-8.35 7.555-7.548 10.248-18.563 7.037-28.757zM10.96 77.592a24.764 24.764 0 0 1-6.874-22.076l28.965 28.942a25.017 25.017 0 0 1-4.506.41c-6.644 0-12.89-2.584-17.585-7.276zm17.81-17.798a24.764 24.764 0 0 1 6.873 22.077L6.681 52.929a25.033 25.033 0 0 1 4.505-.412c6.644 0 12.889 2.585 17.585 7.277zm30.164-32.156a1.834 1.834 0 0 0-3.001 0c-1.287 1.833-3.517 2.928-5.966 2.928-.818 0-1.62-.127-2.377-.367l5.974-14.329h7.738l5.976 14.33a7.86 7.86 0 0 1-2.378.367c-2.449 0-4.679-1.095-5.965-2.928zm-3.843-15.43l2.342-5.616 2.342 5.616h-4.684zm48.817 43.41c-4.697 4.692-10.942 7.276-17.586 7.276-1.516 0-3.023-.14-4.505-.41l11.889-11.88a1.83 1.83 0 0 0 0-2.59 1.833 1.833 0 0 0-2.592 0l-11.89 11.882a24.764 24.764 0 0 1 6.873-22.076c4.696-4.693 10.942-7.277 17.585-7.277 1.517 0 3.023.14 4.506.411l-11.89 11.88a1.83 1.83 0 0 0 1.297 3.126c.469 0 .938-.179 1.296-.537l11.891-11.882a24.765 24.765 0 0 1-6.873 22.077z" fill="currentColor"/><path d="M35.645 81.871a24.764 24.764 0 0 0-6.874-22.076c-4.696-4.693-10.941-7.277-17.585-7.277-1.517 0-3.023.14-4.505.411l28.963 28.942z" fill="var(--color-8)"/><path d="M4.086 55.517a24.763 24.763 0 0 0 6.874 22.076c4.696 4.692 10.941 7.277 17.585 7.277 1.517 0 3.023-.14 4.505-.412L4.087 55.517z" fill="var(--color-9)"/></symbol><symbol viewBox="0 0 115 88" id="icon-5" xmlns="http://www.w3.org/2000/svg"><path d="M94.075 70.087H79.414v6.104h14.66v-6.104z" fill="var(--color-1)"/><path d="M9.922 7.325h95l3.665-3.662H6.257l3.665 3.662zM75.748 76.19v-3.662H9.922l-3.665 3.663h69.491zm29.174-3.662H97.74v3.663h10.847l-3.665-3.663z" fill="var(--color-2)"/><path d="M7.33 69.939V9.915L3.665 6.253V73.6l3.665-3.66zM107.514 9.915v60.024l3.665 3.662V6.253l-3.665 3.662zm-6.109 69.938H13.439v3.663h87.966v-3.663z" fill="var(--color-3)"/><path d="M75.749 68.256c0-1.012.82-1.832 1.832-1.832h18.326c1.013 0 1.833.82 1.833 1.832v.61h6.109V10.987H10.996v57.879h64.753v-.61zM43.836 48.917a1.83 1.83 0 0 1-1.52 2.852 1.83 1.83 0 0 1-1.524-.811l-5.2-7.745-5.2 7.745a1.83 1.83 0 0 1-2.543.5 1.83 1.83 0 0 1-.501-2.541l6.037-8.99-6.037-8.99a1.833 1.833 0 0 1 3.043-2.04l5.201 7.743 5.2-7.744a1.833 1.833 0 0 1 3.044 2.04l-6.037 8.99 6.037 8.991zm20.917-7.32h-5.498v5.494a1.832 1.832 0 0 1-3.665 0v-5.493h-5.498a1.832 1.832 0 1 1 0-3.663h5.498v-5.493a1.832 1.832 0 0 1 3.665 0v5.493h5.498a1.832 1.832 0 1 1 0 3.663zm6.756-13.202a1.833 1.833 0 0 1 2.543.5l5.242 7.808 5.152-7.796a1.834 1.834 0 0 1 2.539-.519 1.83 1.83 0 0 1 .52 2.537l-6.366 9.632v9.38a1.832 1.832 0 0 1-3.665 0v-9.372l-6.465-9.628a1.83 1.83 0 0 1 .5-2.542z" fill="var(--color-4)"/><path d="M43.335 28.395a1.833 1.833 0 0 0-2.542.5l-5.201 7.745-5.2-7.744a1.833 1.833 0 0 0-3.044 2.04l6.037 8.99-6.037 8.991a1.83 1.83 0 0 0 1.52 2.852c.59 0 1.17-.285 1.523-.811l5.201-7.745 5.2 7.745a1.83 1.83 0 0 0 2.543.5 1.83 1.83 0 0 0 .501-2.541l-6.037-8.99 6.037-8.99a1.83 1.83 0 0 0-.5-2.542zm34.139 12.17v9.372a1.832 1.832 0 0 0 3.665 0v-9.38l6.365-9.632a1.83 1.83 0 0 0-.519-2.537 1.834 1.834 0 0 0-2.54.52l-5.15 7.795-5.243-7.807a1.833 1.833 0 0 0-2.543-.5 1.83 1.83 0 0 0-.5 2.54l6.465 9.629zm-12.721-2.63h-5.498v-5.493a1.832 1.832 0 0 0-3.665 0v5.493h-5.498a1.832 1.832 0 1 0 0 3.663h5.498v5.493a1.832 1.832 0 0 0 3.665 0v-5.493h5.498a1.832 1.832 0 1 0 0-3.663z" fill="var(--color-5)"/><path d="M114.48 79.114c.019-.025.038-.05.055-.075.018-.027.034-.055.051-.083.014-.023.029-.046.042-.07.015-.029.028-.058.041-.087.012-.025.025-.05.036-.076l.031-.086.029-.083c.009-.029.015-.059.023-.088.007-.029.015-.057.021-.086.007-.034.011-.07.016-.104.003-.025.008-.048.01-.073.006-.06.009-.122.009-.183V1.833c0-.061-.003-.122-.009-.183-.002-.025-.007-.049-.01-.073-.005-.035-.009-.07-.016-.104-.006-.03-.014-.057-.021-.086-.008-.03-.014-.059-.023-.088l-.029-.083-.031-.086c-.011-.026-.024-.051-.036-.076a1.135 1.135 0 0 0-.041-.086c-.013-.025-.028-.048-.042-.071-.017-.028-.032-.056-.051-.083-.017-.026-.036-.05-.055-.075-.017-.023-.033-.047-.051-.069a2.096 2.096 0 0 0-.256-.255c-.021-.018-.043-.033-.065-.049-.026-.02-.052-.04-.079-.058-.026-.017-.053-.032-.08-.048a1.313 1.313 0 0 0-.074-.044c-.027-.015-.056-.027-.084-.04-.026-.012-.051-.026-.078-.037l-.084-.03c-.028-.01-.056-.021-.085-.03-.029-.009-.057-.015-.085-.022l-.089-.022c-.033-.006-.067-.01-.1-.015l-.077-.011a1.908 1.908 0 0 0-.182-.009H1.833c-.06 0-.121.003-.182.009-.026.002-.051.008-.077.011l-.1.015c-.03.006-.06.015-.089.022L1.3.08c-.029.009-.057.02-.085.03l-.084.03-.078.037C1.025.19.996.202.969.216L.895.26C.868.276.841.291.815.31a1.049 1.049 0 0 0-.079.057C.715.383.692.398.671.416A1.875 1.875 0 0 0 .415.67C.397.693.381.717.364.74.345.765.326.789.309.815.29.842.275.87.259.898a.506.506 0 0 0-.043.07c-.015.028-.028.057-.042.086L.14 1.13c-.012.028-.021.057-.032.086L.08 1.3l-.022.088c-.007.029-.015.057-.021.086-.007.034-.011.07-.016.104-.004.024-.008.048-.01.073a1.59 1.59 0 0 0-.01.183V78.02a1.586 1.586 0 0 0 .02.255c.005.035.009.07.016.105.005.029.013.057.02.085l.023.089c.009.028.02.055.03.082l.031.087c.01.025.023.05.035.075l.042.087c.013.024.028.047.042.07.016.028.032.056.05.083.017.026.037.05.055.075.017.023.033.047.052.069a1.807 1.807 0 0 0 .255.255c.021.018.043.033.065.049.026.02.052.04.08.058.025.017.052.032.078.048l.075.044.082.04c.027.012.053.026.08.037.027.011.055.02.082.03.029.01.058.021.088.03.027.009.055.015.083.022.03.007.06.016.09.022l.097.015c.027.004.054.009.081.011.06.006.12.01.181.01h7.941v5.493c0 1.011.82 1.831 1.833 1.831h91.631c1.012 0 1.832-.82 1.832-1.83v-5.495h7.942c.06 0 .121-.003.181-.009.027-.002.054-.007.081-.011l.096-.015c.031-.006.061-.015.091-.022.028-.007.056-.013.083-.021l.088-.031.081-.03c.028-.011.054-.025.081-.038.028-.013.055-.025.082-.039.025-.013.05-.03.075-.044.026-.016.053-.03.079-.048.027-.018.053-.038.079-.058.021-.016.044-.031.065-.049a1.988 1.988 0 0 0 .255-.255c.018-.023.034-.046.051-.07zM13.44 83.516v-3.663h87.965v3.663H13.439zm84.3-7.325v-3.663h7.182l3.665 3.663H97.74zm-18.326 0v-6.104h14.66v6.104h-14.66zm-68.418-7.325V10.987h92.853v57.879H97.74v-.61c0-1.012-.82-1.832-1.833-1.832H77.581c-1.012 0-1.832.82-1.832 1.832v.61H10.996zm93.926-61.54h-95L6.257 3.662h102.33l-3.665 3.662zM7.331 9.914v60.024L3.665 73.6V6.252L7.33 9.915zm100.183 60.024V9.915l3.665-3.663v67.349l-3.665-3.662zm-97.592 2.59H75.75v3.662H6.257l3.665-3.663z" fill="currentColor"/></symbol></svg>