<?xml version="1.0" encoding="utf-8"?><svg xmlns="http://www.w3.org/2000/svg" xmlns:xlink="http://www.w3.org/1999/xlink"><symbol viewBox="0 0 102.816 102.84" id="logo" xmlns="http://www.w3.org/2000/svg"><path d="M88.844 36.526l-23.271 9.261-5.012-5.633-7.337-3.488-5.673 1.363-1.724-.742-9.286-23.275a8.62 8.62 0 0 1 6.415-11.587c.842-.14 1.684-.281 2.526-.361a49.717 49.717 0 0 1 47.312 21.811 8.586 8.586 0 0 1-3.949 12.65z" fill="#cecece"/><path d="M37.303 57.033l-23.275 9.282a8.58 8.58 0 0 1-11.607-6.434 49.8 49.8 0 0 1 21.471-49.879 8.62 8.62 0 0 1 12.65 3.989l9.262 23.275-5.433 4.571-4.05 8.079zm19.767 8.5l9.262 23.275a8.58 8.58 0 0 1-6.435 11.608 49.7 49.7 0 0 1-49.838-21.451 8.62 8.62 0 0 1 3.989-12.65l23.275-9.282 3.869 5.072 9.422 4.15z" fill="#cecece"/><path d="M100.392 42.821l.04.16a49.7 49.7 0 0 1-21.451 49.838 8.56 8.56 0 0 1-12.65-4.009L57.07 65.534l5.212-3.929 3.989-9.422-.7-6.415 23.275-9.282a8.491 8.491 0 0 1 11.547 6.335z" fill="#aaa"/><path d="M94.057 34.44a10.1 10.1 0 0 0 .18-11.487A51.321 51.321 0 0 0 42.675.761a10.1 10.1 0 0 0-8.218 8.035 10.1 10.1 0 0 0-11.507-.16A51.3 51.3 0 0 0 .757 60.161a10.1 10.1 0 0 0 8.039 8.219 10.344 10.344 0 0 0-.16 11.527 51.321 51.321 0 0 0 51.539 22.173 10.164 10.164 0 0 0 8.219-8.039 10.1 10.1 0 0 0 11.487.18 51.321 51.321 0 0 0 22.172-51.542 10.224 10.224 0 0 0-7.996-8.239zM38.486 7.457a6.729 6.729 0 0 1 4.771-3.388 47.973 47.973 0 0 1 48.194 20.727 6.856 6.856 0 0 1-3.208 10.144l-22.012 8.762a5.012 5.012 0 0 0-2.446-1.584l-.02-.281L75.813 30.29a1.673 1.673 0 1 0-2.325-2.406L62.322 38.59a4.25 4.25 0 0 0-2.967-1.443l9.6-22.293a1.689 1.689 0 0 0-3.107-1.323l-9.6 22.293a4.972 4.972 0 0 0-2.426-1.1l-.682-.02.08-15.436a1.674 1.674 0 0 0-.842-1.463 1.638 1.638 0 0 0-1.684-.02 1.692 1.692 0 0 0-.842 1.463l-.1 16.719-.221.18a5.052 5.052 0 0 0-2.686-.662l-8.76-22.094a7.017 7.017 0 0 1 .401-5.934zm23.6 52.3a1.7 1.7 0 0 1-2.125.441 1.684 1.684 0 0 0-2.426 1.864 1.678 1.678 0 0 1-1.022 1.884 1.657 1.657 0 0 1-2.025-.662 1.664 1.664 0 0 0-1.644-.782 1.608 1.608 0 0 0-.421.1 1.8 1.8 0 0 0-1 1.063 1.684 1.684 0 0 1-3.288-.441 1.664 1.664 0 0 0-2.827-1.183 1.671 1.671 0 0 1-2.165.06 1.733 1.733 0 0 1-.441-2.125 1.684 1.684 0 0 0-1.864-2.426 1.678 1.678 0 0 1-1.884-1.022 1.657 1.657 0 0 1 .662-2.025 1.6 1.6 0 0 0 .782-1.644 1.682 1.682 0 0 0-1.183-1.4 1.687 1.687 0 0 1-1.15-1.823 1.729 1.729 0 0 1 1.6-1.463 1.664 1.664 0 0 0 1.183-2.827 1.68 1.68 0 0 1 2.045-2.606 1.684 1.684 0 0 0 2.426-1.864 1.678 1.678 0 0 1 1.026-1.88 1.657 1.657 0 0 1 2.025.662 1.6 1.6 0 0 0 1.644.782 1.682 1.682 0 0 0 1.4-1.183 1.688 1.688 0 0 1 1.824-1.163 1.711 1.711 0 0 1 1.463 1.6 1.664 1.664 0 0 0 2.827 1.183 1.644 1.644 0 0 1 2.165-.06 1.7 1.7 0 0 1 .441 2.125 1.684 1.684 0 0 0 1.864 2.426 1.678 1.678 0 0 1 1.884 1.022 1.657 1.657 0 0 1-.662 2.025 1.6 1.6 0 0 0-.782 1.644 1.682 1.682 0 0 0 1.183 1.4 1.684 1.684 0 0 1-.461 3.268 1.627 1.627 0 0 0-1.5 1.042 1.666 1.666 0 0 0 .341 1.8 1.722 1.722 0 0 1 .081 2.191zM7.493 64.351a6.736 6.736 0 0 1-3.388-4.771 47.953 47.953 0 0 1 20.729-48.174 6.856 6.856 0 0 1 10.141 3.208l8.761 21.992a5.012 5.012 0 0 0-1.584 2.446l-.221.02-11.564-12.069a1.744 1.744 0 0 0-1.624-.481 1.7 1.7 0 0 0-1.223 1.183 1.661 1.661 0 0 0 .4 1.644l10.706 11.147a3.636 3.636 0 0 0-.481.481 5.132 5.132 0 0 0-1.022 2.426L14.85 33.796a1.689 1.689 0 0 0-1.323 3.107l22.348 9.626a4.851 4.851 0 0 0-1.163 2.486l-.02.541-15.477-.1a1.684 1.684 0 0 0-.02 3.348l16.659.1a1.4 1.4 0 0 0 .261.321 5.052 5.052 0 0 0-.662 2.686l-22.046 8.785a6.676 6.676 0 0 1-5.914-.341zm56.874 31.013a6.736 6.736 0 0 1-4.771 3.388 47.993 47.993 0 0 1-48.174-20.729 6.856 6.856 0 0 1 3.208-10.144l21.992-8.761a5.012 5.012 0 0 0 2.446 1.584c-.02.02 0 .04.02.08L26.975 72.37a1.68 1.68 0 0 0 1.764 2.787 1.9 1.9 0 0 0 .541-.341L40.431 64.15a3.713 3.713 0 0 0 .561.561 4.792 4.792 0 0 0 2.346.982l-9.6 22.293a1.64 1.64 0 0 0 .18 1.7 1.744 1.744 0 0 0 1.564.682 1.669 1.669 0 0 0 1.363-1.042l9.64-22.389a4.949 4.949 0 0 0 2.566 1.223l.481.02-.1 15.477a1.674 1.674 0 0 0 .842 1.463 1.6 1.6 0 0 0 1.684 0 1.684 1.684 0 0 0 .842-1.463l.08-16.619.4-.3a5.047 5.047 0 0 0 2.686.662l8.781 22.032a6.856 6.856 0 0 1-.381 5.934zm34.4-52.123a47.993 47.993 0 0 1-20.729 48.174 6.856 6.856 0 0 1-10.144-3.208l-8.759-22.011a5.012 5.012 0 0 0 1.584-2.446h.12l11.587 12.089a1.673 1.673 0 1 0 2.406-2.325L64.167 62.366a5.012 5.012 0 0 0 1.543-2.97l22.273 9.6a1.679 1.679 0 0 0 2.325-1.744 1.709 1.709 0 0 0-1-1.343l-22.355-9.637a4.843 4.843 0 0 0 1.163-2.486l.02-.6 15.477.1a1.724 1.724 0 0 0 1.664-2 1.657 1.657 0 0 0-1.644-1.363l-16.7-.1-.221-.281a5.047 5.047 0 0 0 .662-2.686l22.072-8.781a6.856 6.856 0 0 1 9.322 5.172z" fill="#333"/></symbol></svg>