<?xml version="1.0" encoding="UTF-8"?>
<svg xmlns="http://www.w3.org/2000/svg" xmlns:xlink="http://www.w3.org/1999/xlink"><symbol viewBox="0 0 300.78 511.97" id="icon-arrow" xmlns="http://www.w3.org/2000/svg"><path d="M292.61 235.97L64.77 8.18a28.07 28.07 0 00-39.61 0L8.39 24.97a28 28 0 000 39.6L199.7 255.88 8.17 447.41a28.09 28.09 0 000 39.61l16.78 16.77a28.07 28.07 0 0039.61 0l228.05-228a28.28 28.28 0 000-39.75z"/></symbol><symbol viewBox="0 0 369 369" id="icon-email" xmlns="http://www.w3.org/2000/svg"><path d="M362.49 121.05a7.39 7.39 0 00-4.52 1.67l-108.41 95.26a11.2 11.2 0 01-7.62 2.9 11.5 11.5 0 01-7.74-2.93l-105.12-92.07c-.88-.84-2.96-2.49-5.6-2.49-.67 0-6.48.23-6.48 8.07v141.35c0 9.2 7.43 16.7 16.56 16.7h219.2c9.1 0 16.24-7.34 16.24-16.7V129.27c0-7.99-5.85-8.22-6.51-8.22z"/><path d="M126.98 92.47l105.78 91.26c.98.94 4.24 3.67 9.18 3.67 4.71 0 8.05-2.7 8.68-3.25l107.02-93.37.14-.12c1.45-1.37 4.48-4.21 3.04-7.86-.8-2-2.73-3.3-4.94-3.3H130.43a6.6 6.6 0 00-6.13 3.92c-.69 1.62-1.28 4.92 2.52 8.88l.17.17zM80 134.5H50c-5.51 0-10 4.49-10 10v7c0 5.51 4.49 10 10 10h30c5.51 0 10-4.49 10-10v-7c0-5.51-4.49-10-10-10zm0 44H30c-5.51 0-10 4.49-10 10v7c0 5.51 4.49 10 10 10h50c5.51 0 10-4.49 10-10v-7c0-5.51-4.49-10-10-10zm0 44H10c-5.51 0-10 4.49-10 10v7c0 5.51 4.49 10 10 10h70c5.51 0 10-4.49 10-10v-7c0-5.51-4.49-10-10-10z"/></symbol><symbol viewBox="0 0 512 512" id="icon-github" xmlns="http://www.w3.org/2000/svg"><path d="M256 0C114.56 0 0 117.46 0 262.48c0 116.14 73.28 214.24 175 249 12.8 2.3 17.6-5.58 17.6-12.47 0-6.23-.32-26.9-.32-48.89-64.32 12.14-81-16.07-86.08-30.84-2.88-7.54-15.36-30.84-26.24-37.07-9-4.92-21.76-17.06-.32-17.39 20.16-.33 34.56 19 39.36 26.9 23 39.7 59.84 28.55 74.56 21.66 2.24-17.06 9-28.55 16.32-35.11-57-6.56-116.48-29.2-116.48-129.59 0-28.55 9.92-52.17 26.24-70.54-2.56-6.57-11.52-33.47 2.56-69.56 0 0 21.44-6.89 70.4 26.9a235.58 235.58 0 01128 0c49-34.12 70.4-26.9 70.4-26.9 14.08 36.09 5.12 63 2.56 69.56 16.32 18.37 26.24 41.66 26.24 70.54 0 100.72-59.84 123-116.8 129.59 9.28 8.2 17.28 23.95 17.28 48.56 0 35.11-.32 63.32-.32 72.18 0 6.89 4.8 15.09 17.6 12.47C441.81 475.43 512 375.24 512 262.48 512 117.46 397.44 0 256 0z"/></symbol><symbol viewBox="0 0 512 512" id="icon-html" xmlns="http://www.w3.org/2000/svg"><path fill="#FFE1BA" d="M121.78 157.16v121.05H26.7v-87.13a33.92 33.92 0 0133.92-33.92h17.34z"/><path fill="#FFEED9" d="M485.3 198.27v266.35a39.87 39.87 0 01-39.87 39.88h-327.6a39.89 39.89 0 01-38.78-30.58l-.16-22.8-.93-135.78V47.38A39.87 39.87 0 01117.83 7.5h176.7c15.88 0 67.31 43.85 112.77 90.03 41.48 42.15 78 86.24 78 100.74z"/><path fill="#FFE8CB" d="M485.3 198.27v97.23c-3-119.72-100.53-125.26-132.42-157.15l54.42-40.82c41.49 42.15 78 86.24 78 100.74z"/><path fill="#FFE8CB" d="M294.53 7.5h-97.57l.34.01c119.72 3 125.26 100.52 157.15 132.41l40.82-54.42c-42.15-41.48-86.24-78-100.74-78z"/><path fill="#FFE1BA" d="M485.3 198.28v16.86a64.32 64.32 0 00-64.3-64.3h-39.15a39.88 39.88 0 01-39.88-39.89V71.81A64.32 64.32 0 00277.66 7.5h16.87c30.37 0 59.51 12.07 80.99 33.54l76.24 76.25a114.55 114.55 0 0133.54 80.99z"/><path fill="#FFE8CB" d="M347.93 309.3v89.44a52.38 52.38 0 01-52.38 52.38H78.89l-.93-135.78v-58.42h217.59a52.38 52.38 0 0152.38 52.38z"/><path fill="#FFC77C" d="M381.85 277.38v89.44a52.38 52.38 0 01-52.38 52.38H60.62a33.9 33.9 0 01-33.92-33.92v-194.2c0 9.36 3.8 17.84 9.94 23.98A33.68 33.68 0 0060.62 225h268.85a52.38 52.38 0 0152.38 52.38z"/><path fill="#FFA44B" d="M57.63 224.86v194.2a33.9 33.9 0 01-30.93-33.78v-194.2c0 9.36 3.8 17.84 9.94 23.98a33.68 33.68 0 0020.99 9.8z"/><path d="M492.8 198.28c0-26.02-8.54-51.87-24.07-72.76a7.5 7.5 0 10-12.04 8.94c6.91 9.3 12.24 19.71 15.82 30.7a71.6 71.6 0 00-51.52-21.83h-39.15a32.41 32.41 0 01-32.37-32.38V71.81a71.6 71.6 0 00-21.8-51.5c15.92 5.21 30.6 14.1 42.54 26.03l64.38 64.38a7.5 7.5 0 0010.6-10.6l-64.37-64.38A121.23 121.23 0 00294.53 0h-176.7a47.43 47.43 0 00-47.37 47.38v102.28h-9.85a41.47 41.47 0 00-41.41 41.42v194.2a41.47 41.47 0 0041.4 41.42h10.61l.33 47.27c0 .57.07 1.14.2 1.7A47.2 47.2 0 00117.83 512h327.6a47.43 47.43 0 0047.37-47.38zM60.61 164.66h9.85v52.84h-9.85c-14.56 0-26.41-11.85-26.41-26.42s11.85-26.42 26.41-26.42zM445.43 497h-327.6a32.25 32.25 0 01-31.29-24.03l-.32-46.27h13.63a7.5 7.5 0 100-15H60.6a26.45 26.45 0 01-26.41-26.42V222.95a41.23 41.23 0 0026.41 9.55h268.86a44.93 44.93 0 0144.88 44.88v89.44a44.93 44.93 0 01-44.88 44.88H129.85a7.5 7.5 0 100 15h199.62a59.95 59.95 0 0059.88-59.88v-89.44a59.95 59.95 0 00-59.88-59.88H85.46V47.38A32.41 32.41 0 01117.83 15h159.83a56.87 56.87 0 0156.81 56.81v39.14a47.43 47.43 0 0047.37 47.38H421a56.87 56.87 0 0156.8 56.62v249.67A32.41 32.41 0 01445.44 497z"/><path d="M211.04 368.59a7.5 7.5 0 008.72-6.05l9.73-53.93 15.97 54.11.08.27a9.28 9.28 0 008.82 6.34h.04a9.28 9.28 0 008.88-6.69l15.42-54.08 10.33 54.06a7.5 7.5 0 0014.74-2.82l-14.86-77.74a9.3 9.3 0 00-17.96-1l-.08.25-16.6 58.25-17.21-58.33a9.3 9.3 0 00-18.05 1.02L205 359.87a7.5 7.5 0 006.05 8.72zm115.06.56c.54.1 1.05.18 9.81.18 4.23 0 10.4-.02 19.42-.07a7.5 7.5 0 00-.08-15c-7.16.04-14.87.07-20.3.07h-.07v-72.2a7.5 7.5 0 10-15 0v79.63a7.5 7.5 0 006.23 7.4zm-203.75-7.32a7.5 7.5 0 1015 0v-79.7a7.5 7.5 0 10-15 0v30.98H82.19v-30.99a7.5 7.5 0 10-15 0v79.71a7.5 7.5 0 1015 0v-33.72h40.16zM154 289.62h14.41v72.2a7.5 7.5 0 1015 0v-72.2h14.6a7.5 7.5 0 100-15h-44.02a7.5 7.5 0 100 15z"/></symbol><symbol viewBox="0 0 512 512" id="icon-instagram" xmlns="http://www.w3.org/2000/svg"><path d="M370.7 0H141.29C63.38 0 0 63.39 0 141.29v229.42C0 448.62 63.38 512 141.29 512H370.7c77.92 0 141.3-63.39 141.3-141.29V141.29C512 63.39 448.62 0 370.7 0zm95.88 370.71a96 96 0 01-95.87 95.86H141.29a96 96 0 01-95.86-95.86V141.29a96 96 0 0195.86-95.86H370.7a96 96 0 0195.87 95.86v229.42z"/><path d="M256 124.08c-72.75 0-131.93 59.18-131.93 131.93S183.25 387.93 256 387.93 387.93 328.75 387.93 256 328.75 124.08 256 124.08zm0 218.42a86.5 86.5 0 1186.5-86.5 86.59 86.59 0 01-86.5 86.5zM393.46 85.56A33.31 33.31 0 10417 95.31a33.44 33.44 0 00-23.54-9.75z"/></symbol><symbol viewBox="0 0 608 173.7" id="icon-shopify" xmlns="http://www.w3.org/2000/svg"><path fill="#95BF47" d="M130.7 32.9c-.1-.9-.9-1.3-1.5-1.4-.6-.1-12.6-.2-12.6-.2s-10.1-9.8-11.1-10.8-2.9-.7-3.7-.5l-5.1 1.6c-.5-1.7-1.3-3.8-2.4-5.9-3.6-6.9-8.8-10.5-15.2-10.5-.4 0-.9 0-1.3.1-.2-.2-.4-.4-.6-.7-2.8-3-6.3-4.4-10.5-4.3-8.2.2-16.3 6.1-23 16.7-4.7 7.4-8.2 16.7-9.2 23.9-9.4 2.9-16 4.9-16.1 5-4.7 1.5-4.9 1.6-5.5 6.1C12.4 55.3 0 151.4 0 151.4l104.1 18 45.1-11.2S130.8 33.7 130.7 32.9zm-39.2-9.7c-2.4.7-5.1 1.6-8.1 2.5-.1-4.1-.6-9.9-2.5-14.9 6.3 1.2 9.3 8.2 10.6 12.4zM78 27.4c-5.5 1.7-11.4 3.5-17.4 5.4 1.7-6.4 4.9-12.8 8.8-17 1.5-1.6 3.5-3.3 5.9-4.3 2.3 4.7 2.7 11.4 2.7 15.9zM66.8 5.8c1.9 0 3.5.4 4.9 1.3-2.2 1.1-4.4 2.8-6.4 5-5.2 5.6-9.2 14.2-10.8 22.6-5 1.5-9.8 3-14.3 4.4 3-13.2 14-32.9 26.6-33.3z"/><path fill="#5E8E3E" d="M129.2 31.5c-.6-.1-12.6-.2-12.6-.2s-10.1-9.8-11.1-10.8c-.4-.4-.9-.6-1.4-.6v149.5l45.1-11.2S130.8 33.8 130.7 32.9c-.2-.9-.9-1.3-1.5-1.4z"/><path fill="#FFF" d="M79.1 54.7l-5.2 19.6s-5.8-2.7-12.8-2.2c-10.2.6-10.3 7-10.2 8.7.6 8.8 23.6 10.7 24.9 31.2 1 16.2-8.6 27.2-22.4 28.1-16.6 1-25.7-8.7-25.7-8.7l3.5-14.9s9.2 6.9 16.5 6.5c4.8-.3 6.5-4.2 6.3-7-.7-11.4-19.5-10.8-20.7-29.5-1-15.8 9.4-31.8 32.3-33.3 9-.8 13.5 1.5 13.5 1.5z"/></symbol><symbol viewBox="0 0 512 512" id="icon-skype" xmlns="http://www.w3.org/2000/svg"><path d="M490.63 293.06a237.14 237.14 0 002.91-37.06c0-131.2-106.35-237.55-237.55-237.55a239.87 239.87 0 00-37.07 2.93A143.57 143.57 0 0021.37 218.93a242.25 242.25 0 00-2.9 37.07c0 131.2 106.35 237.51 237.53 237.51a237.46 237.46 0 0037.08-2.88 143.57 143.57 0 00197.55-197.57zM368.78 364c-10 14.47-24.81 25.78-44.1 33.9s-42.18 12.21-68.56 12.21q-47.43 0-78.46-16.71a101.68 101.68 0 01-35.72-32.11c-9.18-13.4-13.83-26.51-13.83-39.3a26.11 26.11 0 018.48-19.46c5.66-5.38 12.94-8.09 21.55-8.09a27 27 0 0118 6.33q7.34 6.31 12.35 18.38a115.37 115.37 0 0013 23.39c4.62 6.16 11.12 11.3 19.54 15.32s19.41 6.05 33.28 6.05c19 0 34.32-4.11 46.06-12.21s17.47-18.11 17.47-30.13c0-9.58-3.06-17.19-9.33-23.13s-14.42-10.57-24.51-13.76-23.87-6.68-41-10.26q-34.47-7.51-57.77-17.56T148 229.31c-9.22-11.73-13.82-26.32-13.82-43.6a71.13 71.13 0 0114.57-44q14.57-19.29 42.08-29.55t64.37-10.28q29.53 0 51.14 6.81t35.95 18.15q14.28 11.31 21 23.85T370 175.2c0 7.42-2.88 14.15-8.48 20.05a28.08 28.08 0 01-21.15 8.9c-7.55 0-13.48-1.75-17.58-5.43s-8.2-9.25-12.75-17.16q-8.61-16.56-20.62-25.8c-7.79-6-20.64-9.18-38.52-9.14-16.54 0-29.78 3.38-39.77 10s-14.86 14.51-14.88 23.64a22.65 22.65 0 005 14.67 42.05 42.05 0 0014 10.82 96.54 96.54 0 0018.28 7.19c6.22 1.77 16.54 4.32 30.88 7.69q27 5.82 49 12.93t37.44 17.28a73 73 0 0124.33 25.93q8.76 15.74 8.75 38.36A83.36 83.36 0 01368.78 364z"/></symbol><symbol viewBox="0 0 512 255.99" id="icon-soundcloud" xmlns="http://www.w3.org/2000/svg"><path d="M128 255.99h32V54.48a82.43 82.43 0 00-32 17.65zM64 119.67v136.09l2.06.23H96V119.46H66.06zm-64 68a68.57 68.57 0 0032 58.29V129.51A68.5 68.5 0 000 187.7zm192 68.29h32V63.36a80 80 0 00-32-11.42zm253.94-136.5h-18a105.28 105.28 0 001.48-17.06c0-56.56-44.36-102.4-99.1-102.4-29.69 0-56.16 13.67-74.32 35.08v220.91h189.94c36.46 0 66.06-30.56 66.06-68.29s-29.6-68.24-66.06-68.24z"/></symbol><symbol viewBox="0 0 205 42" id="icon-sprintbox" xmlns="http://www.w3.org/2000/svg"><path d="M35.25 9.08l7.2 3.23L52.6 7.75 35.25 0 17.93 7.75l10.15 4.56 7.17-3.23zM3.76 28.24a1.5 1.5 0 00-2.14-1.37l-.73.32c-.53.25-.89.77-.89 1.37a1.52 1.52 0 002.14 1.38l.73-.33c.53-.2.9-.76.9-1.37z"/><path d="M35.25 18.76L14.2 9.36v12.3l-5.46 2.47c-.57.24-.97.76-.97 1.37a1.53 1.53 0 002.06 1.45l4.41-1.98 11.74-5.28.36-.12c.9-.16 1.78.52 1.78 1.5 0 .6-.4 1.16-.97 1.4l-5.26 2.38-7.69 3.4-10.23 4.6c-.49.35-.77 1-.57 1.6.24.93 1.25 1.34 2.14.93l8.66-3.87 4.74-2.06c.85-.36 1.86 0 2.14.89.25.77-.12 1.53-.8 1.86l-3.49 1.57-.85.36c-.52.24-.89.77-.89 1.37a1.52 1.52 0 002.15 1.38l3.32-1.5L35.32 42V25.46l-5.38 2.42c-.04 0-.04 0-.08.04a1.5 1.5 0 01-2.06-1.41c0-.6.4-1.13.97-1.41l6.48-2.91 18.17-8.15v19.9l2.87-1.3V9.32l-21.04 9.44zm46.53 3.34a3.97 3.97 0 00-1.62-1.28c-.77-.45-3.52-1.05-3.56-1.05-2.06-.44-2.87-.97-2.87-1.98 0-.6.44-1.2 1.13-1.53a3.7 3.7 0 011.66-.32c.65 0 1.94.16 3.48 1.33l1.7-1.94a9.1 9.1 0 00-4.13-1.85 6.46 6.46 0 00-3.8.48c-.9.4-1.5.89-1.9 1.5a4 4 0 00-.73 2.33c0 1.54.73 2.79 2.14 3.6.93.52 3.52 1 3.6 1.04 2.1.37 3 1.01 3 2.06s-.77 1.53-1.21 1.73c-.53.25-1.14.37-1.78.37-.94 0-2.47-.32-4.25-1.82l-1.82 1.98A10.04 10.04 0 0077 29.13c.97 0 1.94-.2 2.75-.57a4.83 4.83 0 002.06-1.69 4.17 4.17 0 00-.04-4.76zm17.28-6.45a7.8 7.8 0 00-5.58-2.26c-1.9 0-3.69.9-5.1 2.1v-1.73h-2.84v23.76h2.84V27.07c1.41 1.17 3.2 2.1 5.1 2.1a7.84 7.84 0 007.93-7.87c0-2.18-.85-4.15-2.35-5.65zm-5.62 10.7a5.13 5.13 0 010-10.25 5.13 5.13 0 010 10.25zm14.04-11.1v-1.53h-2.84v15.13h2.84v-8.07c0-2.54 2.18-4.56 4.81-4.56l.7-2.83c-1.75-.04-4.58.81-5.51 1.86zm8.74-1.57V28.8h2.83V13.68h-2.83zm20.39 1.82a7.29 7.29 0 00-5.18-2.1c-1.62 0-3.2.76-4.45 1.73v-1.45h-2.83V28.8h2.83v-8.1a4.53 4.53 0 014.45-4.52 4.5 4.5 0 014.45 4.52v8.1h2.84v-8.1c0-1.98-.77-3.8-2.1-5.2zm14.09 10.6h-2.55c-1.18 0-2.27-1.17-2.27-2.38v-7.34h4.65v-2.7h-4.65V7.83h-2.83v5.85h-2.23v2.7h2.27v7.42c0 2.83 2.26 5 5.01 5h3.36l-.77-2.7zm16.99-10.45a7.8 7.8 0 00-5.58-2.26c-1.9 0-3.69.9-5.1 2.1V4.56l-2.83 1.25v22.96H157v-1.74c1.41 1.17 3.2 2.1 5.1 2.1a7.83 7.83 0 007.93-7.87 7.7 7.7 0 00-2.35-5.6zm-5.58 10.7a5.13 5.13 0 010-10.25 5.13 5.13 0 010 10.25zm23.71-10.7a7.8 7.8 0 00-5.58-2.26c-2.1 0-4.1.81-5.63 2.26a7.96 7.96 0 000 11.22 8.01 8.01 0 0011.2 0 7.83 7.83 0 000-11.22zm-5.63 10.7a5.07 5.07 0 110-10.13c2.8 0 5.1 2.26 5.1 5.04a5.1 5.1 0 01-5.1 5.09zm-61.02-18h-2.83v2.83h2.83V8.35zM205 28.8h-3.68l-4.41-6.04-4.41 6.05h-3.65l6.16-7.95-5.43-7.18h3.56l3.77 5.32 3.8-5.32h3.6l-5.5 7.18L205 28.8z"/></symbol><symbol viewBox="0 0 511.68 445.5" id="icon-telegram" xmlns="http://www.w3.org/2000/svg"><path d="M9.04 213.61l117.9 44 45.63 146.76a13.89 13.89 0 0022.05 6.64l65.72-53.58a19.62 19.62 0 0123.9-.67l118.53 86.06a13.89 13.89 0 0021.77-8.4l86.84-417.68A13.9 13.9 0 00492.77.95L8.9 187.61c-11.94 4.61-11.84 21.52.14 26zm156.18 20.58L395.68 92.27c4.14-2.54 8.4 3.06 4.85 6.36L210.32 275.4a39.49 39.49 0 00-12.22 23.59l-6.47 48a6 6 0 01-11.63.84l-24.92-87.54a23.21 23.21 0 0110.14-26.1z"/></symbol><symbol viewBox="0 0 511.32 366.86" id="icon-upwork" xmlns="http://www.w3.org/2000/svg"><path d="M395.96 32.22c-55.08 0-96.65 36.37-113.28 93.53-26-40.53-46.77-86.26-58.2-125.75h-58.16v152.78c0 30.13-24.94 55.08-55.08 55.08s-55.12-24.95-55.12-55.08V1.04H0v152.78c0 63.39 50.92 114.32 113.32 114.32s113.24-50.93 113.24-114.32v-26a534.05 534.05 0 0041.57 69.63l-36.37 169.42h59.23l24.95-123.68c22.86 14.55 48.84 22.87 80 22.87 63.4 0 115.36-52 115.36-118.48.02-63.4-51.98-115.36-115.34-115.36zm0 175.64c-22.86 0-46.77-10.4-65.47-26l6.23-22.87v-1c4.16-24.94 17.67-66.51 60.28-66.51a58.1 58.1 0 0158.2 58.2c-1.04 32.2-29.1 58.18-59.24 58.18z"/></symbol><symbol viewBox="0 0 507.42 511.56" id="icon-whatsapp" xmlns="http://www.w3.org/2000/svg"><path d="M241.3.3C106.2 6.73-.41 119.3 0 254.5a252.53 252.53 0 0027.65 114.43l-27 130.76a9.87 9.87 0 0012 11.6l128.1-30.36a252.46 252.46 0 00109 26.47c138.1 2.16 253.24-107.54 257.54-245.57C511.91 113.86 389.79-6.77 241.3.3zm152.88 393.89a198.79 198.79 0 01-228.89 37.46l-17.84-8.89-78.55 18.62 16.53-80.27-8.78-17.21a198.84 198.84 0 0136.6-230.66 198.676 198.676 0 11280.94 281z"/><path d="M376.84 308.74l-49.14-14.12a18.32 18.32 0 00-18.13 4.78l-12 12.24a17.87 17.87 0 01-19.46 4.11c-23.25-9.41-72.15-52.89-84.64-74.64a17.9 17.9 0 011.42-19.84l10.49-13.57a18.32 18.32 0 002.27-18.61l-20.68-46.76a18.32 18.32 0 00-28.61-6.55c-13.72 11.6-30 29.22-32 48.75-3.49 34.44 11.28 77.84 67.12 130 64.51 60.21 116.17 68.16 149.8 60 19.08-4.63 34.33-23.15 43.95-38.32a18.32 18.32 0 00-10.39-27.47z"/></symbol><symbol viewBox="0 0 447.67 447.67" id="icon-wp" xmlns="http://www.w3.org/2000/svg"><g fill="#00769d"><path d="M134.29 138.16h-24.72l67.4 190.52 37.73-107.82-29.26-82.7h-26.08v-18.15h115.5v18.15h-27.04l67.4 190.52 24.22-69.23c31.78-88.7-26.04-116.34-26.04-136.13a35.85 35.85 0 0138.97-35.7 186.63 186.63 0 00-128.54-51.07c-65.02 0-122.3 33.14-155.88 83.46h66.34v18.15zm-97.74 85.68c0 71.7 40.3 133.98 99.48 165.45L51.51 150.38a186.68 186.68 0 00-14.96 73.46zm350.28-92.29c2.68 15.77 1.87 33.5-2.24 51.3h.75l-2.84 8.09a174.5 174.5 0 01-6.19 17.7l-64.44 180.53c59.06-31.5 99.25-93.72 99.25-165.33 0-33.56-8.83-65.05-24.29-92.3z"/><path d="M166.07 402.03c18.2 5.9 37.6 9.1 57.77 9.1 19.22 0 37.77-2.9 55.24-8.3l-54.79-154.85-58.22 154.05z"/><path d="M382.11 65.56C339.84 23.28 283.62 0 223.84 0s-116 23.28-158.28 65.56S0 164.05 0 223.84c0 59.79 23.28 116 65.56 158.27s98.49 65.56 158.28 65.56 116-23.28 158.27-65.56a222.37 222.37 0 0065.56-158.27c0-59.8-23.28-116-65.56-158.28zM223.84 431.88c-114.72 0-208.05-93.33-208.05-208.04S109.12 15.79 223.84 15.79s208.04 93.33 208.04 208.05-93.33 208.04-208.04 208.04z"/></g></symbol></svg>