<?xml version="1.0" encoding="utf-8"?><svg xmlns="http://www.w3.org/2000/svg" xmlns:xlink="http://www.w3.org/1999/xlink"><symbol viewBox="0 0 300.78 511.97" id="icon-arrow" xmlns="http://www.w3.org/2000/svg"><path d="M292.61 235.97L64.77 8.18a28.07 28.07 0 00-39.61 0L8.39 24.97a28 28 0 000 39.6L199.7 255.88 8.17 447.41a28.09 28.09 0 000 39.61l16.78 16.77a28.07 28.07 0 0039.61 0l228.05-228a28.28 28.28 0 000-39.75z"/></symbol><symbol viewBox="0 0 603 103" id="icon-do" xmlns="http://www.w3.org/2000/svg"><path d="M52.1 102.1V82.5c20.8 0 36.8-20.6 28.9-42.4-3-8.1-9.4-14.6-17.5-17.5-21.8-7.9-42.4 8.1-42.4 28.9H1.5c0-33.1 32-58.9 66.7-48.1a48.68 48.68 0 0131.9 31.9c10.8 34.8-14.9 66.8-48 66.8z"/><path class="bst0" d="M52.1 82.5H32.6V63h19.5zM32.6 97.5h-15v-15h15zM17.6 82.5H5V70h12.6z"/><g><path d="M181.5 30.2c-5.8-4-13-6.1-21.4-6.1h-18.3v58.1h18.3c8.4 0 15.6-2.1 21.4-6.4 3.2-2.2 5.7-5.4 7.4-9.3s2.6-8.5 2.6-13.7a34 34 0 00-2.6-13.6c-1.7-3.8-4.2-6.9-7.4-9zm-29 3.8h5.8c6.4 0 11.7 1.3 15.7 3.7 4.4 2.7 6.7 7.8 6.7 15.1 0 7.6-2.3 12.9-6.7 15.8-3.8 2.5-9.1 3.8-15.6 3.8h-5.8l-.1-38.4zM204.3 23.4c-1.8 0-3.3.6-4.5 1.8a6.13 6.13 0 00-1.9 4.4c0 1.8.6 3.3 1.9 4.5 1.2 1.2 2.7 1.9 4.5 1.9s3.3-.6 4.5-1.9c1.2-1.2 1.9-2.8 1.9-4.5 0-1.8-.6-3.3-1.9-4.4a6.27 6.27 0 00-4.5-1.8zM199 41.3h10.3v41H199zM246.8 44.7c-3.1-2.8-6.6-4.4-10.3-4.4-5.7 0-10.4 2-14.1 5.8-3.7 3.8-5.5 8.8-5.5 14.7 0 5.8 1.8 10.7 5.5 14.7 3.7 3.8 8.4 5.8 14.1 5.8 4 0 7.4-1.1 10.2-3.3v1c0 3.4-.9 6-2.7 7.9-1.8 1.8-4.3 2.7-7.4 2.7-4.8 0-7.7-1.9-11.4-6.8l-7 6.7.2.3c1.5 2.1 3.8 4.2 6.9 6.2 3.1 2 6.9 3 11.5 3 6.1 0 11.1-1.9 14.7-5.6 3.7-3.7 5.5-8.7 5.5-14.9V41.3h-10.1l-.1 3.4zm-2.7 24.2c-1.8 2-4.1 3-7.1 3s-5.3-1-7-3c-1.8-2-2.7-4.7-2.7-8s.9-6.1 2.7-8.1 4.1-3.1 7-3.1c3 0 5.3 1 7.1 3.1 1.8 2 2.7 4.8 2.7 8.1s-1 6-2.7 8zM265.7 41.3H276v41h-10.3zM271 23.4c-1.8 0-3.3.6-4.5 1.8a6.13 6.13 0 00-1.9 4.4c0 1.8.6 3.3 1.9 4.5 1.2 1.2 2.7 1.9 4.5 1.9s3.3-.6 4.5-1.9c1.2-1.2 1.9-2.8 1.9-4.5 0-1.8-.6-3.3-1.9-4.4a6.27 6.27 0 00-4.5-1.8zM298.6 30.3h-10.1v11.1h-5.9v9.4h5.9v17c0 5.3 1.1 9.1 3.2 11.3 2.1 2.2 5.8 3.3 11.1 3.3 1.7 0 3.4-.1 5-.2h.5v-9.4l-3.5.2c-2.5 0-4.1-.4-4.9-1.3s-1.2-2.7-1.2-5.4V50.7h9.6v-9.4h-9.6v-11h-.1zM356.5 24.1h10.3v58.1h-10.3zM470.9 67.6c-1.8 2.1-3.7 3.9-5.2 4.8-1.4.9-3.2 1.4-5.3 1.4-3 0-5.5-1.1-7.5-3.4s-3-5.2-3-8.7 1-6.4 2.9-8.6c2-2.3 4.4-3.4 7.4-3.4 3.3 0 6.8 2.1 9.8 5.6l6.8-6.5c-4.4-5.8-10.1-8.5-16.9-8.5-5.7 0-10.6 2.1-14.6 6.1s-6 9.2-6 15.3 2 11.2 6 15.3 8.9 6.1 14.6 6.1c7.5 0 13.5-3.2 17.5-9.1l-6.5-6.4zM513.2 47c-1.5-2-3.5-3.7-5.9-4.9a19.3 19.3 0 00-8.5-1.8c-5.8 0-10.5 2.1-14 6.3-3.4 4.2-5.2 9.3-5.2 15.4 0 6.2 1.9 11.3 5.7 15.3 3.7 3.9 8.8 5.9 14.9 5.9 6.9 0 12.7-2.8 16.9-8.4l.2-.3-6.7-6.5c-.6.8-1.5 1.6-2.3 2.4-1 1-2 1.7-3 2.2-1.5.8-3.3 1.1-5.2 1.1-2.9 0-5.2-.8-7-2.5a8.89 8.89 0 01-2.9-6.2h27.3l.1-3.8c0-2.7-.4-5.2-1.1-7.6-.7-2.3-1.8-4.5-3.3-6.6zm-22.5 9.7c.5-2 1.4-3.6 2.7-4.9 1.4-1.4 3.2-2.1 5.4-2.1 2.5 0 4.4.7 5.7 2.1 1.2 1.3 1.9 2.9 2.1 4.8h-15.9v.1zM552.8 44.4c-3.1-2.7-7.4-4-12.8-4-3.4 0-6.6.8-9.5 2.2-2.7 1.4-5.3 3.6-7 6.6l.1.1 6.6 6.3c2.7-4.3 5.7-5.8 9.7-5.8 2.2 0 3.9.6 5.3 1.7s2 2.6 2 4.4v2c-2.6-.8-5.1-1.2-7.6-1.2-5.1 0-9.3 1.2-12.4 3.6-3.1 2.4-4.7 5.9-4.7 10.2 0 3.8 1.3 7 4 9.3 2.7 2.2 6 3.4 9.9 3.4s7.6-1.6 10.9-4.3v3.4h10.1V55.9c.2-4.9-1.4-8.8-4.6-11.5zm-18.3 22.2c1.2-.8 2.8-1.2 4.9-1.2 2.5 0 5.1.5 7.8 1.5v4C545 73 542 74 538.3 74c-1.8 0-3.2-.4-4.1-1.2-.9-.8-1.4-1.7-1.4-3s.6-2.4 1.7-3.2zM597.2 45.2c-2.9-3.2-6.9-4.8-12-4.8-4.1 0-7.4 1.2-9.9 3.5v-2.5h-10.1v41h10.3V59.7c0-3.1.7-5.6 2.2-7.3 1.5-1.8 3.4-2.6 6.1-2.6 2.3 0 4.1.8 5.4 2.3 1.3 1.6 2 3.7 2 6.4v23.7h10.3V58.5c0-5.6-1.4-10.1-4.3-13.3zM343.6 44.4c-3.1-2.7-7.4-4-12.8-4-3.4 0-6.6.8-9.5 2.2-2.7 1.4-5.3 3.6-7 6.6l.1.1 6.6 6.3c2.7-4.3 5.7-5.8 9.7-5.8 2.2 0 3.9.6 5.3 1.7s2 2.6 2 4.4v2c-2.6-.8-5.1-1.2-7.6-1.2-5.1 0-9.3 1.2-12.4 3.6-3.1 2.4-4.7 5.9-4.7 10.2 0 3.8 1.3 7 4 9.3 2.7 2.2 6 3.4 9.9 3.4s7.6-1.6 10.9-4.3v3.4h10.1V55.9c.1-4.9-1.5-8.8-4.6-11.5zm-18.3 22.2c1.2-.8 2.8-1.2 4.9-1.2 2.5 0 5.1.5 7.8 1.5v4c-2.2 2.1-5.2 3.1-8.9 3.1-1.8 0-3.2-.4-4.1-1.2-.9-.8-1.4-1.7-1.4-3s.5-2.4 1.7-3.2zM404.2 83.1c-16.5 0-30-13.4-30-30s13.4-30 30-30c16.5 0 30 13.4 30 30s-13.5 30-30 30zm0-49.3c-10.7 0-19.4 8.7-19.4 19.4s8.7 19.4 19.4 19.4 19.4-8.7 19.4-19.4-8.7-19.4-19.4-19.4z"/></g></symbol><symbol viewBox="0 0 369 369" id="icon-email" xmlns="http://www.w3.org/2000/svg"><path d="M362.49 121.05a7.39 7.39 0 00-4.52 1.67l-108.41 95.26a11.2 11.2 0 01-7.62 2.9 11.5 11.5 0 01-7.74-2.93l-105.12-92.07c-.88-.84-2.96-2.49-5.6-2.49-.67 0-6.48.23-6.48 8.07v141.35c0 9.2 7.43 16.7 16.56 16.7h219.2c9.1 0 16.24-7.34 16.24-16.7V129.27c0-7.99-5.85-8.22-6.51-8.22z"/><path d="M126.98 92.47l105.78 91.26c.98.94 4.24 3.67 9.18 3.67 4.71 0 8.05-2.7 8.68-3.25l107.02-93.37.14-.12c1.45-1.37 4.48-4.21 3.04-7.86-.8-2-2.73-3.3-4.94-3.3H130.43a6.6 6.6 0 00-6.13 3.92c-.69 1.62-1.28 4.92 2.52 8.88l.17.17zM80 134.5H50c-5.51 0-10 4.49-10 10v7c0 5.51 4.49 10 10 10h30c5.51 0 10-4.49 10-10v-7c0-5.51-4.49-10-10-10zm0 44H30c-5.51 0-10 4.49-10 10v7c0 5.51 4.49 10 10 10h50c5.51 0 10-4.49 10-10v-7c0-5.51-4.49-10-10-10zm0 44H10c-5.51 0-10 4.49-10 10v7c0 5.51 4.49 10 10 10h70c5.51 0 10-4.49 10-10v-7c0-5.51-4.49-10-10-10z"/></symbol><symbol viewBox="0 0 512 512" id="icon-github" xmlns="http://www.w3.org/2000/svg"><path d="M256 0C114.56 0 0 117.46 0 262.48c0 116.14 73.28 214.24 175 249 12.8 2.3 17.6-5.58 17.6-12.47 0-6.23-.32-26.9-.32-48.89-64.32 12.14-81-16.07-86.08-30.84-2.88-7.54-15.36-30.84-26.24-37.07-9-4.92-21.76-17.06-.32-17.39 20.16-.33 34.56 19 39.36 26.9 23 39.7 59.84 28.55 74.56 21.66 2.24-17.06 9-28.55 16.32-35.11-57-6.56-116.48-29.2-116.48-129.59 0-28.55 9.92-52.17 26.24-70.54-2.56-6.57-11.52-33.47 2.56-69.56 0 0 21.44-6.89 70.4 26.9a235.58 235.58 0 01128 0c49-34.12 70.4-26.9 70.4-26.9 14.08 36.09 5.12 63 2.56 69.56 16.32 18.37 26.24 41.66 26.24 70.54 0 100.72-59.84 123-116.8 129.59 9.28 8.2 17.28 23.95 17.28 48.56 0 35.11-.32 63.32-.32 72.18 0 6.89 4.8 15.09 17.6 12.47C441.81 475.43 512 375.24 512 262.48 512 117.46 397.44 0 256 0z"/></symbol><symbol viewBox="0 0 512 512" id="icon-instagram" xmlns="http://www.w3.org/2000/svg"><path d="M370.7 0H141.29C63.38 0 0 63.39 0 141.29v229.42C0 448.62 63.38 512 141.29 512H370.7c77.92 0 141.3-63.39 141.3-141.29V141.29C512 63.39 448.62 0 370.7 0zm95.88 370.71a96 96 0 01-95.87 95.86H141.29a96 96 0 01-95.86-95.86V141.29a96 96 0 0195.86-95.86H370.7a96 96 0 0195.87 95.86v229.42z"/><path d="M256 124.08c-72.75 0-131.93 59.18-131.93 131.93S183.25 387.93 256 387.93 387.93 328.75 387.93 256 328.75 124.08 256 124.08zm0 218.42a86.5 86.5 0 1186.5-86.5 86.59 86.59 0 01-86.5 86.5zM393.46 85.56A33.31 33.31 0 10417 95.31a33.44 33.44 0 00-23.54-9.75z"/></symbol><symbol viewBox="0 0 608 173.7" id="icon-shopify" xmlns="http://www.w3.org/2000/svg"><path fill="#95BF47" d="M130.7 32.9c-.1-.9-.9-1.3-1.5-1.4-.6-.1-12.6-.2-12.6-.2s-10.1-9.8-11.1-10.8-2.9-.7-3.7-.5l-5.1 1.6c-.5-1.7-1.3-3.8-2.4-5.9-3.6-6.9-8.8-10.5-15.2-10.5-.4 0-.9 0-1.3.1-.2-.2-.4-.4-.6-.7-2.8-3-6.3-4.4-10.5-4.3-8.2.2-16.3 6.1-23 16.7-4.7 7.4-8.2 16.7-9.2 23.9-9.4 2.9-16 4.9-16.1 5-4.7 1.5-4.9 1.6-5.5 6.1C12.4 55.3 0 151.4 0 151.4l104.1 18 45.1-11.2S130.8 33.7 130.7 32.9zm-39.2-9.7c-2.4.7-5.1 1.6-8.1 2.5-.1-4.1-.6-9.9-2.5-14.9 6.3 1.2 9.3 8.2 10.6 12.4zM78 27.4c-5.5 1.7-11.4 3.5-17.4 5.4 1.7-6.4 4.9-12.8 8.8-17 1.5-1.6 3.5-3.3 5.9-4.3 2.3 4.7 2.7 11.4 2.7 15.9zM66.8 5.8c1.9 0 3.5.4 4.9 1.3-2.2 1.1-4.4 2.8-6.4 5-5.2 5.6-9.2 14.2-10.8 22.6-5 1.5-9.8 3-14.3 4.4 3-13.2 14-32.9 26.6-33.3z"/><path fill="#5E8E3E" d="M129.2 31.5c-.6-.1-12.6-.2-12.6-.2s-10.1-9.8-11.1-10.8c-.4-.4-.9-.6-1.4-.6v149.5l45.1-11.2S130.8 33.8 130.7 32.9c-.2-.9-.9-1.3-1.5-1.4z"/><path fill="#FFF" d="M79.1 54.7l-5.2 19.6s-5.8-2.7-12.8-2.2c-10.2.6-10.3 7-10.2 8.7.6 8.8 23.6 10.7 24.9 31.2 1 16.2-8.6 27.2-22.4 28.1-16.6 1-25.7-8.7-25.7-8.7l3.5-14.9s9.2 6.9 16.5 6.5c4.8-.3 6.5-4.2 6.3-7-.7-11.4-19.5-10.8-20.7-29.5-1-15.8 9.4-31.8 32.3-33.3 9-.8 13.5 1.5 13.5 1.5z"/></symbol><symbol viewBox="0 0 512 512" id="icon-skype" xmlns="http://www.w3.org/2000/svg"><path d="M490.63 293.06a237.14 237.14 0 002.91-37.06c0-131.2-106.35-237.55-237.55-237.55a239.87 239.87 0 00-37.07 2.93A143.57 143.57 0 0021.37 218.93a242.25 242.25 0 00-2.9 37.07c0 131.2 106.35 237.51 237.53 237.51a237.46 237.46 0 0037.08-2.88 143.57 143.57 0 00197.55-197.57zM368.78 364c-10 14.47-24.81 25.78-44.1 33.9s-42.18 12.21-68.56 12.21q-47.43 0-78.46-16.71a101.68 101.68 0 01-35.72-32.11c-9.18-13.4-13.83-26.51-13.83-39.3a26.11 26.11 0 018.48-19.46c5.66-5.38 12.94-8.09 21.55-8.09a27 27 0 0118 6.33q7.34 6.31 12.35 18.38a115.37 115.37 0 0013 23.39c4.62 6.16 11.12 11.3 19.54 15.32s19.41 6.05 33.28 6.05c19 0 34.32-4.11 46.06-12.21s17.47-18.11 17.47-30.13c0-9.58-3.06-17.19-9.33-23.13s-14.42-10.57-24.51-13.76-23.87-6.68-41-10.26q-34.47-7.51-57.77-17.56T148 229.31c-9.22-11.73-13.82-26.32-13.82-43.6a71.13 71.13 0 0114.57-44q14.57-19.29 42.08-29.55t64.37-10.28q29.53 0 51.14 6.81t35.95 18.15q14.28 11.31 21 23.85T370 175.2c0 7.42-2.88 14.15-8.48 20.05a28.08 28.08 0 01-21.15 8.9c-7.55 0-13.48-1.75-17.58-5.43s-8.2-9.25-12.75-17.16q-8.61-16.56-20.62-25.8c-7.79-6-20.64-9.18-38.52-9.14-16.54 0-29.78 3.38-39.77 10s-14.86 14.51-14.88 23.64a22.65 22.65 0 005 14.67 42.05 42.05 0 0014 10.82 96.54 96.54 0 0018.28 7.19c6.22 1.77 16.54 4.32 30.88 7.69q27 5.82 49 12.93t37.44 17.28a73 73 0 0124.33 25.93q8.76 15.74 8.75 38.36A83.36 83.36 0 01368.78 364z"/></symbol><symbol viewBox="0 0 512 255.99" id="icon-soundcloud" xmlns="http://www.w3.org/2000/svg"><path d="M128 255.99h32V54.48a82.43 82.43 0 00-32 17.65zM64 119.67v136.09l2.06.23H96V119.46H66.06zm-64 68a68.57 68.57 0 0032 58.29V129.51A68.5 68.5 0 000 187.7zm192 68.29h32V63.36a80 80 0 00-32-11.42zm253.94-136.5h-18a105.28 105.28 0 001.48-17.06c0-56.56-44.36-102.4-99.1-102.4-29.69 0-56.16 13.67-74.32 35.08v220.91h189.94c36.46 0 66.06-30.56 66.06-68.29s-29.6-68.24-66.06-68.24z"/></symbol><symbol viewBox="0 0 511.68 445.5" id="icon-telegram" xmlns="http://www.w3.org/2000/svg"><path d="M9.04 213.61l117.9 44 45.63 146.76a13.89 13.89 0 0022.05 6.64l65.72-53.58a19.62 19.62 0 0123.9-.67l118.53 86.06a13.89 13.89 0 0021.77-8.4l86.84-417.68A13.9 13.9 0 00492.77.95L8.9 187.61c-11.94 4.61-11.84 21.52.14 26zm156.18 20.58L395.68 92.27c4.14-2.54 8.4 3.06 4.85 6.36L210.32 275.4a39.49 39.49 0 00-12.22 23.59l-6.47 48a6 6 0 01-11.63.84l-24.92-87.54a23.21 23.21 0 0110.14-26.1z"/></symbol><symbol viewBox="0 0 511.32 366.86" id="icon-upwork" xmlns="http://www.w3.org/2000/svg"><path d="M395.96 32.22c-55.08 0-96.65 36.37-113.28 93.53-26-40.53-46.77-86.26-58.2-125.75h-58.16v152.78c0 30.13-24.94 55.08-55.08 55.08s-55.12-24.95-55.12-55.08V1.04H0v152.78c0 63.39 50.92 114.32 113.32 114.32s113.24-50.93 113.24-114.32v-26a534.05 534.05 0 0041.57 69.63l-36.37 169.42h59.23l24.95-123.68c22.86 14.55 48.84 22.87 80 22.87 63.4 0 115.36-52 115.36-118.48.02-63.4-51.98-115.36-115.34-115.36zm0 175.64c-22.86 0-46.77-10.4-65.47-26l6.23-22.87v-1c4.16-24.94 17.67-66.51 60.28-66.51a58.1 58.1 0 0158.2 58.2c-1.04 32.2-29.1 58.18-59.24 58.18z"/></symbol><symbol viewBox="0 0 507.42 511.56" id="icon-whatsapp" xmlns="http://www.w3.org/2000/svg"><path d="M241.3.3C106.2 6.73-.41 119.3 0 254.5a252.53 252.53 0 0027.65 114.43l-27 130.76a9.87 9.87 0 0012 11.6l128.1-30.36a252.46 252.46 0 00109 26.47c138.1 2.16 253.24-107.54 257.54-245.57C511.91 113.86 389.79-6.77 241.3.3zm152.88 393.89a198.79 198.79 0 01-228.89 37.46l-17.84-8.89-78.55 18.62 16.53-80.27-8.78-17.21a198.84 198.84 0 0136.6-230.66 198.676 198.676 0 11280.94 281z"/><path d="M376.84 308.74l-49.14-14.12a18.32 18.32 0 00-18.13 4.78l-12 12.24a17.87 17.87 0 01-19.46 4.11c-23.25-9.41-72.15-52.89-84.64-74.64a17.9 17.9 0 011.42-19.84l10.49-13.57a18.32 18.32 0 002.27-18.61l-20.68-46.76a18.32 18.32 0 00-28.61-6.55c-13.72 11.6-30 29.22-32 48.75-3.49 34.44 11.28 77.84 67.12 130 64.51 60.21 116.17 68.16 149.8 60 19.08-4.63 34.33-23.15 43.95-38.32a18.32 18.32 0 00-10.39-27.47z"/></symbol></svg>