<?xml version="1.0" encoding="utf-8"?><svg xmlns="http://www.w3.org/2000/svg" xmlns:xlink="http://www.w3.org/1999/xlink"><symbol viewBox="0 0 470.699 470.699" id="css-3" xmlns="http://www.w3.org/2000/svg"><path d="M426.981 0H43.701C34.52 0 27.632 7.769 28.442 16.949L63.45 409.254c.811 9.173 8.745 18.774 17.644 21.253L219.1 468.842c8.887 2.463 23.413 2.479 32.313.032l138.177-38.281c8.901-2.472 16.835-11.986 17.645-21.175l35.023-392.469C443.068 7.769 436.209 0 426.981 0zM360.51 141.611a.134.134 0 0 1-.112.117.134.134 0 0 1-.144-.077L252.13 185.96a3.485 3.485 0 0 0 1.321 6.708h84.103a15.772 15.772 0 0 1 15.682 17.443l-13.141 123.273a15.77 15.77 0 0 1-10.447 13.205l-89.269 31.41a15.761 15.761 0 0 1-10.397.025l-88.852-30.778a15.771 15.771 0 0 1-10.52-13.228l-5.957-55.828a10.388 10.388 0 0 1 10.331-11.492h24.725c5.313 0 9.769 4.007 10.331 9.289l3.655 34.316 61.521 21.385 61.803-21.58 7.559-71.17H129.835a10.39 10.39 0 0 1-10.327-9.25l-3.327-30.164a10.388 10.388 0 0 1 6.366-10.745l111.837-46.109a2.872 2.872 0 0 0-1.093-5.528H115.542a6.926 6.926 0 0 1-6.888-6.201l-3.406-32.421a6.927 6.927 0 0 1 6.887-7.648h246.379a6.928 6.928 0 0 1 6.881 7.707l-4.885 43.032z"/></symbol><symbol viewBox="0 0 456.804 456.804" id="html-5" xmlns="http://www.w3.org/2000/svg"><path d="M27.405 0l36.542 410.56 163.882 46.244 165.022-46.244L429.398 0H27.405zm322.62 133.904h-192.43l4.283 51.676h183.866l-14.273 155.315-102.499 28.26v.287h-1.143l-103.356-28.547-6.28-79.367h49.965l3.711 39.971 55.959 15.126 56.245-15.126 6.283-65.097H115.625l-13.418-152.46h252.392l-4.574 49.962z"/></symbol></svg>