<svg xmlns="http://www.w3.org/2000/svg" viewBox="0 0 512 512">
  <path d="M370.7 0H141.29C63.38 0 0 63.39 0 141.29v229.42C0 448.62 63.38 512 141.29 512H370.7c77.92 0 141.3-63.39 141.3-141.29V141.29C512 63.39 448.62 0 370.7 0zm95.88 370.71a96 96 0 01-95.87 95.86H141.29a96 96 0 01-95.86-95.86V141.29a96 96 0 0195.86-95.86H370.7a96 96 0 0195.87 95.86v229.42z"/>
  <path d="M256 124.08c-72.75 0-131.93 59.18-131.93 131.93S183.25 387.93 256 387.93 387.93 328.75 387.93 256 328.75 124.08 256 124.08zm0 218.42a86.5 86.5 0 1186.5-86.5 86.59 86.59 0 01-86.5 86.5zM393.46 85.56A33.31 33.31 0 10417 95.31a33.44 33.44 0 00-23.54-9.75z"/>
</svg>
