<svg xmlns="http://www.w3.org/2000/svg" viewBox="0 0 512 512">
  <path d="M490.63 293.06a237.14 237.14 0 002.91-37.06c0-131.2-106.35-237.55-237.55-237.55a239.87 239.87 0 00-37.07 2.93A143.57 143.57 0 0021.37 218.93a242.25 242.25 0 00-2.9 37.07c0 131.2 106.35 237.51 237.53 237.51a237.46 237.46 0 0037.08-2.88 143.57 143.57 0 00197.55-197.57zM368.78 364c-10 14.47-24.81 25.78-44.1 33.9s-42.18 12.21-68.56 12.21q-47.43 0-78.46-16.71a101.68 101.68 0 01-35.72-32.11c-9.18-13.4-13.83-26.51-13.83-39.3a26.11 26.11 0 018.48-19.46c5.66-5.38 12.94-8.09 21.55-8.09a27 27 0 0118 6.33q7.34 6.31 12.35 18.38a115.37 115.37 0 0013 23.39c4.62 6.16 11.12 11.3 19.54 15.32s19.41 6.05 33.28 6.05c19 0 34.32-4.11 46.06-12.21s17.47-18.11 17.47-30.13c0-9.58-3.06-17.19-9.33-23.13s-14.42-10.57-24.51-13.76-23.87-6.68-41-10.26q-34.47-7.51-57.77-17.56T148 229.31c-9.22-11.73-13.82-26.32-13.82-43.6a71.13 71.13 0 0114.57-44q14.57-19.29 42.08-29.55t64.37-10.28q29.53 0 51.14 6.81t35.95 18.15q14.28 11.31 21 23.85T370 175.2c0 7.42-2.88 14.15-8.48 20.05a28.08 28.08 0 01-21.15 8.9c-7.55 0-13.48-1.75-17.58-5.43s-8.2-9.25-12.75-17.16q-8.61-16.56-20.62-25.8c-7.79-6-20.64-9.18-38.52-9.14-16.54 0-29.78 3.38-39.77 10s-14.86 14.51-14.88 23.64a22.65 22.65 0 005 14.67 42.05 42.05 0 0014 10.82 96.54 96.54 0 0018.28 7.19c6.22 1.77 16.54 4.32 30.88 7.69q27 5.82 49 12.93t37.44 17.28a73 73 0 0124.33 25.93q8.76 15.74 8.75 38.36A83.36 83.36 0 01368.78 364z"/>
</svg>
