<svg id="Layer_1" data-name="Layer 1" xmlns="http://www.w3.org/2000/svg" viewBox="0 0 511.32 366.86"><title>icon-upwork</title><path d="M396.64,104.5c-55.08,0-96.65,36.37-113.28,93.53-26-40.53-46.77-86.26-58.2-125.75H167V225.06c0,30.13-24.94,55.08-55.08,55.08S56.8,255.19,56.8,225.06V73.32H.68V226.1C.68,289.49,51.6,340.42,114,340.42S227.24,289.49,227.24,226.1v-26a534.05,534.05,0,0,0,41.57,69.63L232.44,439.15h59.23l24.95-123.68c22.86,14.55,48.84,22.87,80,22.87,63.4,0,115.36-52,115.36-118.48C512,156.46,460,104.5,396.64,104.5Zm0,175.64c-22.86,0-46.77-10.4-65.47-26l6.23-22.87v-1c4.16-24.94,17.67-66.51,60.28-66.51a58.1,58.1,0,0,1,58.2,58.2C454.84,254.16,426.78,280.14,396.64,280.14Z" transform="translate(-0.68 -72.28)"/></svg>