<svg xmlns="http://www.w3.org/2000/svg" viewBox="0 0 205 42">
  <path d="M35.25 9.08l7.2 3.23L52.6 7.75 35.25 0 17.93 7.75l10.15 4.56 7.17-3.23zM3.76 28.24a1.5 1.5 0 00-2.14-1.37l-.73.32c-.53.25-.89.77-.89 1.37a1.52 1.52 0 002.14 1.38l.73-.33c.53-.2.9-.76.9-1.37z"/>
  <path d="M35.25 18.76L14.2 9.36v12.3l-5.46 2.47c-.57.24-.97.76-.97 1.37a1.53 1.53 0 002.06 1.45l4.41-1.98 11.74-5.28.36-.12c.9-.16 1.78.52 1.78 1.5 0 .6-.4 1.16-.97 1.4l-5.26 2.38-7.69 3.4-10.23 4.6c-.49.35-.77 1-.57 1.6.24.93 1.25 1.34 2.14.93l8.66-3.87 4.74-2.06c.85-.36 1.86 0 2.14.89.25.77-.12 1.53-.8 1.86l-3.49 1.57-.85.36c-.52.24-.89.77-.89 1.37a1.52 1.52 0 002.15 1.38l3.32-1.5L35.32 42V25.46l-5.38 2.42c-.04 0-.04 0-.08.04a1.5 1.5 0 01-2.06-1.41c0-.6.4-1.13.97-1.41l6.48-2.91 18.17-8.15v19.9l2.87-1.3V9.32l-21.04 9.44zM81.78 22.1a3.97 3.97 0 00-1.62-1.28c-.77-.45-3.52-1.05-3.56-1.05-2.06-.44-2.87-.97-2.87-1.98 0-.6.44-1.2 1.13-1.53a3.7 3.7 0 011.66-.32c.65 0 1.94.16 3.48 1.33l1.7-1.94a9.1 9.1 0 00-4.13-1.85 6.46 6.46 0 00-3.8.48c-.9.4-1.5.89-1.9 1.5a4 4 0 00-.73 2.33c0 1.54.73 2.79 2.14 3.6.93.52 3.52 1 3.6 1.04 2.1.37 3 1.01 3 2.06s-.77 1.53-1.21 1.73c-.53.25-1.14.37-1.78.37-.94 0-2.47-.32-4.25-1.82l-1.82 1.98A10.04 10.04 0 0077 29.13c.97 0 1.94-.2 2.75-.57a4.83 4.83 0 002.06-1.69 4.17 4.17 0 00-.04-4.76zM99.06 15.65a7.8 7.8 0 00-5.58-2.26c-1.9 0-3.69.9-5.1 2.1v-1.73h-2.84v23.76h2.84V27.07c1.41 1.17 3.2 2.1 5.1 2.1a7.84 7.84 0 007.93-7.87c0-2.18-.85-4.15-2.35-5.65zm-5.62 10.7a5.13 5.13 0 010-10.25 5.13 5.13 0 010 10.25zM107.48 15.25v-1.53h-2.84v15.13h2.84v-8.07c0-2.54 2.18-4.56 4.81-4.56l.7-2.83c-1.75-.04-4.58.81-5.51 1.86zM116.22 13.68V28.8h2.83V13.68h-2.83zM136.61 15.5a7.29 7.29 0 00-5.18-2.1c-1.62 0-3.2.76-4.45 1.73v-1.45h-2.83V28.8h2.83V20.7a4.53 4.53 0 014.45-4.52 4.5 4.5 0 014.45 4.52v8.1h2.84v-8.1c0-1.98-.77-3.8-2.1-5.2zM150.7 26.1h-2.55c-1.18 0-2.27-1.17-2.27-2.38v-7.34h4.65v-2.7h-4.65V7.83h-2.83v5.85h-2.23v2.7h2.27v7.42c0 2.83 2.26 5 5.01 5h3.36l-.77-2.7zM167.69 15.65a7.8 7.8 0 00-5.58-2.26c-1.9 0-3.69.9-5.1 2.1V4.56l-2.83 1.25v22.96H157v-1.74c1.41 1.17 3.2 2.1 5.1 2.1a7.83 7.83 0 007.93-7.87 7.7 7.7 0 00-2.35-5.6zm-5.58 10.7a5.13 5.13 0 010-10.25 5.13 5.13 0 010 10.25zM185.82 15.65a7.8 7.8 0 00-5.58-2.26c-2.1 0-4.1.81-5.63 2.26a7.96 7.96 0 000 11.22 8.01 8.01 0 0011.2 0 7.83 7.83 0 000-11.22zm-5.63 10.7a5.07 5.07 0 110-10.13c2.8 0 5.1 2.26 5.1 5.04a5.1 5.1 0 01-5.1 5.09zM119.17 8.35h-2.83v2.83h2.83V8.35zM205 28.8h-3.68l-4.41-6.04-4.41 6.05h-3.65l6.16-7.95-5.43-7.18h3.56l3.77 5.32 3.8-5.32h3.6l-5.5 7.18L205 28.8z"/>
</svg>
