<svg xmlns="http://www.w3.org/2000/svg" viewBox="0 0 507.42 511.56">
  <path d="M241.3.3C106.2 6.73-.41 119.3 0 254.5a252.53 252.53 0 0027.65 114.43l-27 130.76a9.87 9.87 0 0012 11.6l128.1-30.36a252.46 252.46 0 00109 26.47c138.1 2.16 253.24-107.54 257.54-245.57C511.91 113.86 389.79-6.77 241.3.3zm152.88 393.89a198.79 198.79 0 01-228.89 37.46l-17.84-8.89-78.55 18.62 16.53-80.27-8.78-17.21a198.84 198.84 0 0136.6-230.66 198.676 198.676 0 11280.94 281z"/>
  <path d="M376.84 308.74l-49.14-14.12a18.32 18.32 0 00-18.13 4.78l-12 12.24a17.87 17.87 0 01-19.46 4.11c-23.25-9.41-72.15-52.89-84.64-74.64a17.9 17.9 0 011.42-19.84l10.49-13.57a18.32 18.32 0 002.27-18.61l-20.68-46.76a18.32 18.32 0 00-28.61-6.55c-13.72 11.6-30 29.22-32 48.75-3.49 34.44 11.28 77.84 67.12 130 64.51 60.21 116.17 68.16 149.8 60 19.08-4.63 34.33-23.15 43.95-38.32a18.32 18.32 0 00-10.39-27.47z"/>
</svg>
