<svg xmlns="http://www.w3.org/2000/svg" viewBox="0 0 369 369">
  <path d="M362.49 121.05a7.39 7.39 0 00-4.52 1.67l-108.41 95.26a11.2 11.2 0 01-7.62 2.9 11.5 11.5 0 01-7.74-2.93l-105.12-92.07c-.88-.84-2.96-2.49-5.6-2.49-.67 0-6.48.23-6.48 8.07v141.35c0 9.2 7.43 16.7 16.56 16.7h219.2c9.1 0 16.24-7.34 16.24-16.7V129.27c0-7.99-5.85-8.22-6.51-8.22z"/>
  <path d="M126.98 92.47l105.78 91.26c.98.94 4.24 3.67 9.18 3.67 4.71 0 8.05-2.7 8.68-3.25l107.02-93.37.14-.12c1.45-1.37 4.48-4.21 3.04-7.86-.8-2-2.73-3.3-4.94-3.3H130.43a6.6 6.6 0 00-6.13 3.92c-.69 1.62-1.28 4.92 2.52 8.88l.17.17zM80 134.5H50c-5.51 0-10 4.49-10 10v7c0 5.51 4.49 10 10 10h30c5.51 0 10-4.49 10-10v-7c0-5.51-4.49-10-10-10zM80 178.5H30c-5.51 0-10 4.49-10 10v7c0 5.51 4.49 10 10 10h50c5.51 0 10-4.49 10-10v-7c0-5.51-4.49-10-10-10zM80 222.5H10c-5.51 0-10 4.49-10 10v7c0 5.51 4.49 10 10 10h70c5.51 0 10-4.49 10-10v-7c0-5.51-4.49-10-10-10z"/>
</svg>
