<svg xmlns="http://www.w3.org/2000/svg" viewBox="0 0 512 512">
  <path d="M256 0C114.56 0 0 117.46 0 262.48c0 116.14 73.28 214.24 175 249 12.8 2.3 17.6-5.58 17.6-12.47 0-6.23-.32-26.9-.32-48.89-64.32 12.14-81-16.07-86.08-30.84-2.88-7.54-15.36-30.84-26.24-37.07-9-4.92-21.76-17.06-.32-17.39 20.16-.33 34.56 19 39.36 26.9 23 39.7 59.84 28.55 74.56 21.66 2.24-17.06 9-28.55 16.32-35.11-57-6.56-116.48-29.2-116.48-129.59 0-28.55 9.92-52.17 26.24-70.54-2.56-6.57-11.52-33.47 2.56-69.56 0 0 21.44-6.89 70.4 26.9a235.58 235.58 0 01128 0c49-34.12 70.4-26.9 70.4-26.9 14.08 36.09 5.12 63 2.56 69.56 16.32 18.37 26.24 41.66 26.24 70.54 0 100.72-59.84 123-116.8 129.59 9.28 8.2 17.28 23.95 17.28 48.56 0 35.11-.32 63.32-.32 72.18 0 6.89 4.8 15.09 17.6 12.47C441.81 475.43 512 375.24 512 262.48 512 117.46 397.44 0 256 0z"/>
</svg>
