<svg xmlns="http://www.w3.org/2000/svg" viewBox="0 0 447.67 447.67">
  <g fill="#00769d">
    <path d="M134.29 138.16h-24.72l67.4 190.52 37.73-107.82-29.26-82.7h-26.08v-18.15h115.5v18.15h-27.04l67.4 190.52 24.22-69.23c31.78-88.7-26.04-116.34-26.04-136.13a35.85 35.85 0 0138.97-35.7 186.63 186.63 0 00-128.54-51.07c-65.02 0-122.3 33.14-155.88 83.46h66.34v18.15zM36.55 223.84c0 71.7 40.3 133.98 99.48 165.45L51.51 150.38a186.68 186.68 0 00-14.96 73.46zM386.83 131.55c2.68 15.77 1.87 33.5-2.24 51.3h.75l-2.84 8.09a174.5 174.5 0 01-6.19 17.7l-64.44 180.53c59.06-31.5 99.25-93.72 99.25-165.33 0-33.56-8.83-65.05-24.29-92.3z"/>
    <path d="M166.07 402.03c18.2 5.9 37.6 9.1 57.77 9.1 19.22 0 37.77-2.9 55.24-8.3l-54.79-154.85-58.22 154.05z"/>
    <path d="M382.11 65.56C339.84 23.28 283.62 0 223.84 0s-116 23.28-158.28 65.56S0 164.05 0 223.84c0 59.79 23.28 116 65.56 158.27s98.49 65.56 158.28 65.56 116-23.28 158.27-65.56a222.37 222.37 0 0065.56-158.27c0-59.8-23.28-116-65.56-158.28zM223.84 431.88c-114.72 0-208.05-93.33-208.05-208.04S109.12 15.79 223.84 15.79s208.04 93.33 208.04 208.05-93.33 208.04-208.04 208.04z"/>
  </g>
</svg>
