<svg xmlns="http://www.w3.org/2000/svg" viewBox="0 0 512 512">
  <path fill="#FFE1BA" d="M121.78 157.16v121.05H26.7v-87.13a33.92 33.92 0 0133.92-33.92h17.34z"/>
  <path fill="#FFEED9" d="M485.3 198.27v266.35a39.87 39.87 0 01-39.87 39.88h-327.6a39.89 39.89 0 01-38.78-30.58l-.16-22.8-.93-135.78V47.38A39.87 39.87 0 01117.83 7.5h176.7c15.88 0 67.31 43.85 112.77 90.03 41.48 42.15 78 86.24 78 100.74z"/>
  <path fill="#FFE8CB" d="M485.3 198.27V295.5c-3-119.72-100.53-125.26-132.42-157.15l54.42-40.82c41.49 42.15 78 86.24 78 100.74z"/>
  <path fill="#FFE8CB" d="M294.53 7.5h-97.57l.34.01c119.72 3 125.26 100.52 157.15 132.41l40.82-54.42c-42.15-41.48-86.24-78-100.74-78z"/>
  <path fill="#FFE1BA" d="M485.3 198.28v16.86a64.32 64.32 0 00-64.3-64.3h-39.15a39.88 39.88 0 01-39.88-39.89V71.81A64.32 64.32 0 00277.66 7.5h16.87c30.37 0 59.51 12.07 80.99 33.54l76.24 76.25a114.55 114.55 0 0133.54 80.99z"/>
  <path fill="#FFE8CB" d="M347.93 309.3v89.44a52.38 52.38 0 01-52.38 52.38H78.89l-.93-135.78v-58.42h217.59a52.38 52.38 0 0152.38 52.38z"/>
  <path fill="#FFC77C" d="M381.85 277.38v89.44a52.38 52.38 0 01-52.38 52.38H60.62a33.9 33.9 0 01-33.92-33.92v-194.2c0 9.36 3.8 17.84 9.94 23.98A33.68 33.68 0 0060.62 225h268.85a52.38 52.38 0 0152.38 52.38z"/>
  <path fill="#FFA44B" d="M57.63 224.86v194.2a33.9 33.9 0 01-30.93-33.78v-194.2c0 9.36 3.8 17.84 9.94 23.98a33.68 33.68 0 0020.99 9.8z"/>
  <g>
    <path d="M492.8 198.28c0-26.02-8.54-51.87-24.07-72.76a7.5 7.5 0 10-12.04 8.94c6.91 9.3 12.24 19.71 15.82 30.7a71.6 71.6 0 00-51.52-21.83h-39.15a32.41 32.41 0 01-32.37-32.38V71.81a71.6 71.6 0 00-21.8-51.5c15.92 5.21 30.6 14.1 42.54 26.03l64.38 64.38a7.5 7.5 0 0010.6-10.6l-64.37-64.38A121.23 121.23 0 00294.53 0h-176.7a47.43 47.43 0 00-47.37 47.38v102.28h-9.85a41.47 41.47 0 00-41.41 41.42v194.2A41.47 41.47 0 0060.6 426.7h10.61l.33 47.27c0 .57.07 1.14.2 1.7A47.2 47.2 0 00117.83 512h327.6a47.43 47.43 0 0047.37-47.38zM60.61 164.66h9.85v52.84h-9.85c-14.56 0-26.41-11.85-26.41-26.42s11.85-26.42 26.41-26.42zM445.43 497h-327.6a32.25 32.25 0 01-31.29-24.03l-.32-46.27h13.63a7.5 7.5 0 100-15H60.6a26.45 26.45 0 01-26.41-26.42V222.95a41.23 41.23 0 0026.41 9.55h268.86a44.93 44.93 0 0144.88 44.88v89.44a44.93 44.93 0 01-44.88 44.88H129.85a7.5 7.5 0 100 15h199.62a59.95 59.95 0 0059.88-59.88v-89.44a59.95 59.95 0 00-59.88-59.88H85.46V47.38A32.41 32.41 0 01117.83 15h159.83a56.87 56.87 0 0156.81 56.81v39.14a47.43 47.43 0 0047.37 47.38H421a56.87 56.87 0 0156.8 56.62v249.67A32.41 32.41 0 01445.44 497z"/>
    <path d="M211.04 368.59a7.5 7.5 0 008.72-6.05l9.73-53.93 15.97 54.11.08.27a9.28 9.28 0 008.82 6.34h.04a9.28 9.28 0 008.88-6.69l15.42-54.08 10.33 54.06a7.5 7.5 0 0014.74-2.82l-14.86-77.74a9.3 9.3 0 00-17.96-1l-.08.25-16.6 58.25-17.21-58.33a9.3 9.3 0 00-18.05 1.02L205 359.87a7.5 7.5 0 006.05 8.72zM326.1 369.15c.54.1 1.05.18 9.81.18 4.23 0 10.4-.02 19.42-.07a7.5 7.5 0 00-.08-15c-7.16.04-14.87.07-20.3.07h-.07v-72.2a7.5 7.5 0 10-15 0v79.63a7.5 7.5 0 006.23 7.4zM122.35 361.83a7.5 7.5 0 1015 0v-79.7a7.5 7.5 0 10-15 0v30.98H82.19v-30.99a7.5 7.5 0 10-15 0v79.71a7.5 7.5 0 1015 0v-33.72h40.16zM154 289.62h14.41v72.2a7.5 7.5 0 1015 0v-72.2h14.6a7.5 7.5 0 100-15h-44.02a7.5 7.5 0 100 15z"/>
  </g>
</svg>
